<?xml version="1.0" standalone="no"?>
  <!DOCTYPE svg PUBLIC "-//W3C//DTD SVG 1.1//EN" "http://www.w3.org/Graphics/SVG/1.1/DTD/svg11.dtd" >
  <svg>
  <metadata>
  Created by font-carrier
  </metadata>
  <defs>
  <font id="VKSansDisplay-Bold" horiz-adv-x="1194" vert-adv-y="1194" >
    <font-face
      
      font-family="VK Sans Display"
      
      font-weight="400"
      
      font-stretch="normal"
      
      units-per-em="1000"
      
      ascent="1000"
      
      descent="-250"
      
    />
      <missing-glyph />

      

      
      <glyph glyph-name="uni21" unicode="&#x21;" d="M199 229L97 229L81 523L81 705L215 705L215 523L199 229M148-10Q114-10 90.50 13Q67 36 67 69Q67 104 90.50 127Q114 150 148 150Q183 150 206 127Q229 104 229 69Q229 36 205.50 13Q182-10 148-10Z"  horiz-adv-x="296" vert-adv-y="1000"  />

      
      <glyph glyph-name="uni22" unicode="&#x22;" d="M161 457L62 457L52 705L171 705L161 457M338 457L239 457L229 705L348 705L338 457Z"  horiz-adv-x="400" vert-adv-y="1000"  />

      
      <glyph glyph-name="uni23" unicode="&#x23;" d="M223 0L112 0L150 174L42 174L63 278L172 278L203 427L96 427L118 531L225 531L262 705L373 705L336 531L483 531L520 705L631 705L594 531L702 531L681 427L572 427L541 278L648 278L627 174L519 174L481 0L370 0L408 174L261 174L223 0M314 427L283 278L430 278L461 427L314 427Z"  horiz-adv-x="744" vert-adv-y="1000"  />

      
      <glyph glyph-name="uni24" unicode="&#x24;" d="M329 413Q392 392 433 371Q474 350 504 310.50Q534 271 534 209Q534 129 481 78Q428 27 347 14L347-102L247-102L247 14Q166 28 107 80Q48 132 27 212L163 235Q191 185 219.50 161.50Q248 138 297 138Q339 138 365 155Q391 172 391 203Q391 234 361.50 252.50Q332 271 267 293Q204 315 162.50 335.50Q121 356 91 396Q61 436 61 499Q61 582 113 633Q165 684 247 693L247 807L347 807L347 688Q414 672 462.50 625Q511 578 534 507L401 485Q362 567 287 567Q252 567 228 551.50Q204 536 204 506Q204 473 234.50 454Q265 435 329 413Z"  horiz-adv-x="576" vert-adv-y="1000"  />

      
      <glyph glyph-name="uni25" unicode="&#x25;" d="M215 368Q164 368 123.50 390Q83 412 60 452Q37 492 37 542Q37 592 60 631.50Q83 671 123.50 693Q164 715 215 715Q266 715 306.50 693Q347 671 369.50 631.50Q392 592 392 542Q392 492 369.50 452Q347 412 306.50 390Q266 368 215 368M270 0L150 0L585 705L705 705L270 0M215 465Q248 465 269 486.50Q290 508 290 542Q290 576 269 597Q248 618 215 618Q181 618 160 597Q139 576 139 542Q139 508 160 486.50Q181 465 215 465M640-10Q589-10 548.50 12Q508 34 485 74Q462 114 462 164Q462 214 485 253.50Q508 293 548.50 315Q589 337 640 337Q691 337 731.50 315Q772 293 794.50 253.50Q817 214 817 164Q817 114 794.50 74Q772 34 731.50 12Q691-10 640-10M640 87Q673 87 694 108.50Q715 130 715 164Q715 198 694 219Q673 240 640 240Q606 240 585 219Q564 198 564 164Q564 130 585 108.50Q606 87 640 87Z"  horiz-adv-x="854" vert-adv-y="1000"  />

      
      <glyph glyph-name="uni26" unicode="&#x26;" d="M737 1L560 1L475 86Q416 38 362 14.50Q308-9 253-9Q193-9 145 15.50Q97 40 69.50 84Q42 128 42 184Q42 234 72.50 278Q103 322 190 372Q145 418 126 454Q107 490 107 532Q107 582 133 622.50Q159 663 204.50 686Q250 709 307 709Q363 709 408.50 686Q454 663 479.50 623Q505 583 505 532Q505 492 479 453Q453 414 372 363L371 363L481 254Q521 299 561 350L714 350Q635 248 564 172L737 1M305 599Q271 599 249.50 581.50Q228 564 228 535Q228 514 240.50 496.50Q253 479 284 449L299 434Q342 460 363 483Q384 506 384 533Q384 562 362 580.50Q340 599 305 599M275 116Q304 116 332.50 128Q361 140 394 167L265 296L263 294Q215 263 198 238Q181 213 181 191Q181 157 207.50 136.50Q234 116 275 116Z"  horiz-adv-x="750" vert-adv-y="1000"  />

      
      <glyph glyph-name="uni27" unicode="&#x27;" d="M161 457L62 457L52 705L171 705L161 457Z"  horiz-adv-x="223" vert-adv-y="1000"  />

      
      <glyph glyph-name="uni28" unicode="&#x28;" d="M198-205Q126-112 84 8Q42 128 42 263Q42 399 84 517.50Q126 636 198 730L334 730Q265 637 224.50 517Q184 397 184 263Q184 129 224.50 8.50Q265-112 334-205L198-205Z"  horiz-adv-x="346" vert-adv-y="1000"  />

      
      <glyph glyph-name="uni29" unicode="&#x29;" d="M12-205Q81-112 121.50 8.50Q162 129 162 263Q162 397 121.50 517Q81 637 12 730L148 730Q220 636 262 517.50Q304 399 304 263Q304 128 262 8Q220-112 148-205L12-205Z"  horiz-adv-x="346" vert-adv-y="1000"  />

      
      <glyph glyph-name="uni2a" unicode="&#x2a;" d="M228 436L166 333L70 398L163 492L32 523L67 630L182 582L171 705L284 705L272 582L389 630L424 523L293 492L386 398L290 333L228 436Z"  horiz-adv-x="456" vert-adv-y="1000"  />

      
      <glyph glyph-name="uni2b" unicode="&#x2b;" d="M368 92L250 92L250 280L62 280L62 398L250 398L250 586L368 586L368 398L556 398L556 280L368 280L368 92Z"  horiz-adv-x="618" vert-adv-y="1000"  />

      
      <glyph glyph-name="uni2c" unicode="&#x2c;" d="M153-117L45-117L87 135L216 135L153-117Z"  horiz-adv-x="286" vert-adv-y="1000"  />

      
      <glyph glyph-name="uni2d" unicode="&#x2d;" d="M378 221L52 221L52 347L378 347L378 221Z"  horiz-adv-x="430" vert-adv-y="1000"  />

      
      <glyph glyph-name="uni2e" unicode="&#x2e;" d="M143-10Q109-10 85.50 13Q62 36 62 69Q62 104 85.50 127Q109 150 143 150Q178 150 201 127Q224 104 224 69Q224 36 200.50 13Q177-10 143-10Z"  horiz-adv-x="286" vert-adv-y="1000"  />

      
      <glyph glyph-name="uni2f" unicode="&#x2f;" d="M136-200L0-200L290 730L426 730L136-200Z"  horiz-adv-x="426" vert-adv-y="1000"  />

      
      <glyph glyph-name="uni30" unicode="&#x30;" d="M337-8Q250-8 183 37Q116 82 79 164Q42 246 42 352Q42 458 79 540Q116 622 183 667Q250 712 337 712Q424 712 491 667Q558 622 595 540Q632 458 632 352Q632 246 595 164Q558 82 491 37Q424-8 337-8M337 120Q405 120 445.50 183Q486 246 486 352Q486 458 445.50 521Q405 584 337 584Q293 584 259 555.50Q225 527 206.50 474.50Q188 422 188 352Q188 282 206.50 229.50Q225 177 259 148.50Q293 120 337 120Z"  horiz-adv-x="674" vert-adv-y="1000"  />

      
      <glyph glyph-name="uni31" unicode="&#x31;" d="M160 0L160 502L22 502L22 630L124 630Q141 630 150.50 639.50Q160 649 160 666L160 705L300 705L300 0L160 0Z"  horiz-adv-x="392" vert-adv-y="1000"  />

      
      <glyph glyph-name="uni32" unicode="&#x32;" d="M46 0L46 156L310 385Q378 444 378 503Q378 540 352.50 563.50Q327 587 286 587Q242 587 216 559Q190 531 170 479L37 501Q64 598 129.50 656.50Q195 715 294 715Q360 715 412.50 687.50Q465 660 494.50 612Q524 564 524 504Q524 445 493 396.50Q462 348 398 293L227 146L227 129L529 132L529 0L46 0Z"  horiz-adv-x="571" vert-adv-y="1000"  />

      
      <glyph glyph-name="uni33" unicode="&#x33;" d="M405 367Q456 350 490.50 308.50Q525 267 525 202Q525 141 493 93Q461 45 404.50 17.50Q348-10 277-10Q211-10 155.50 15Q100 40 62.50 85Q25 130 12 189L147 211Q170 164 200.50 141Q231 118 276 118Q325 118 356.50 143.50Q388 169 388 209Q388 248 355.50 273.50Q323 299 272 299L196 299L196 420L272 420Q319 420 348.50 443Q378 466 378 504Q378 541 350 564Q322 587 277 587Q202 587 160 502L28 525Q60 618 125 666.50Q190 715 280 715Q348 715 402 689.50Q456 664 486.50 619.50Q517 575 517 520Q517 461 485 421.50Q453 382 405 367Z"  horiz-adv-x="567" vert-adv-y="1000"  />

      
      <glyph glyph-name="uni34" unicode="&#x34;" d="M499 0L366 0L366 136L27 136L27 268L302 705L499 705L499 264L591 264L591 136L499 136L499 0M349 564L170 264L366 264L366 564L349 564Z"  horiz-adv-x="608" vert-adv-y="1000"  />

      
      <glyph glyph-name="uni35" unicode="&#x35;" d="M343 480Q410 480 462.50 448.50Q515 417 545 361.50Q575 306 575 236Q575 164 542 108Q509 52 450 21Q391-10 315-10Q250-10 195 15Q140 40 102.50 85.50Q65 131 52 189L187 211Q206 166 238 142Q270 118 312 118Q365 118 398.50 151Q432 184 432 236Q432 287 400 319.50Q368 352 317 352Q284 352 255 339Q226 326 206 305L72 305L113 705L541 705L541 577L230 577L217 445Q271 480 343 480Z"  horiz-adv-x="617" vert-adv-y="1000"  />

      
      <glyph glyph-name="uni36" unicode="&#x36;" d="M334 478Q404 478 459.50 447.50Q515 417 546.50 362.50Q578 308 578 240Q578 168 543 111Q508 54 446.50 22Q385-10 306-10Q226-10 163.50 20.50Q101 51 66.50 107Q32 163 32 239Q32 288 52.50 348Q73 408 132 494L276 705L439 705L281 474Q305 478 334 478M306 118Q363 118 399 151Q435 184 435 237Q435 290 399 323Q363 356 306 356Q248 356 211.50 323Q175 290 175 237Q175 184 211 151Q247 118 306 118Z"  horiz-adv-x="611" vert-adv-y="1000"  />

      
      <glyph glyph-name="uni37" unicode="&#x37;" d="M252 0L97 0L358 552L358 570L7 570L7 705L517 705L517 560L252 0Z"  horiz-adv-x="554" vert-adv-y="1000"  />

      
      <glyph glyph-name="uni38" unicode="&#x38;" d="M469 361Q518 343 548.50 302.50Q579 262 579 201Q579 141 544.50 92.50Q510 44 448.50 17Q387-10 310-10Q234-10 172.50 17.50Q111 45 76.50 93Q42 141 42 201Q42 263 72.50 303.50Q103 344 152 361Q114 380 88 417Q62 454 62 512Q62 570 94 616Q126 662 182.50 688Q239 714 310 714Q382 714 438.50 688Q495 662 527 616Q559 570 559 512Q559 454 533 417Q507 380 469 361M311 590Q262 590 232 566Q202 542 202 504Q202 465 232 441.50Q262 418 311 418Q360 418 389.50 441.50Q419 465 419 504Q419 542 389.50 566Q360 590 311 590M310 114Q366 114 401 141Q436 168 436 210Q436 253 401 279.50Q366 306 310 306Q254 306 219.50 279.50Q185 253 185 210Q185 168 220 141Q255 114 310 114Z"  horiz-adv-x="621" vert-adv-y="1000"  />

      
      <glyph glyph-name="uni39" unicode="&#x39;" d="M305 715Q385 715 447.50 684.50Q510 654 544.50 598Q579 542 579 466Q579 417 558.50 357Q538 297 479 211L335 0L172 0L330 231Q306 227 277 227Q207 227 151.50 257.50Q96 288 64.50 342.50Q33 397 33 465Q33 537 68 594Q103 651 164.50 683Q226 715 305 715M305 349Q363 349 399.50 382Q436 415 436 468Q436 521 400 554Q364 587 305 587Q248 587 212 554Q176 521 176 468Q176 415 212 382Q248 349 305 349Z"  horiz-adv-x="611" vert-adv-y="1000"  />

      
      <glyph glyph-name="uni3a" unicode="&#x3a;" d="M143-10Q109-10 85.50 13Q62 36 62 69Q62 104 85.50 127Q109 150 143 150Q178 150 201 127Q224 104 224 69Q224 36 200.50 13Q177-10 143-10M143 374Q109 374 85.50 397Q62 420 62 453Q62 488 85.50 511Q109 534 143 534Q178 534 201 511Q224 488 224 453Q224 420 200.50 397Q177 374 143 374Z"  horiz-adv-x="286" vert-adv-y="1000"  />

      
      <glyph glyph-name="uni3b" unicode="&#x3b;" d="M153-117L45-117L87 135L216 135L153-117M143 374Q109 374 85.50 397Q62 420 62 453Q62 488 85.50 511Q109 534 143 534Q178 534 201 511Q224 488 224 453Q224 420 200.50 397Q177 374 143 374Z"  horiz-adv-x="286" vert-adv-y="1000"  />

      
      <glyph glyph-name="uni3c" unicode="&#x3c;" d="M546 195L546 64L72 269L72 409L546 614L546 481L210 344L210 333L546 195Z"  horiz-adv-x="618" vert-adv-y="1000"  />

      
      <glyph glyph-name="uni3d" unicode="&#x3d;" d="M556 383L62 383L62 501L556 501L556 383M556 177L62 177L62 295L556 295L556 177Z"  horiz-adv-x="618" vert-adv-y="1000"  />

      
      <glyph glyph-name="uni3e" unicode="&#x3e;" d="M546 269L72 64L72 195L408 333L408 344L72 481L72 614L546 409L546 269Z"  horiz-adv-x="618" vert-adv-y="1000"  />

      
      <glyph glyph-name="uni3f" unicode="&#x3f;" d="M183 268Q183 312 192 339Q201 366 217.50 383Q234 400 263 418Q310 447 326.50 470.50Q343 494 343 515Q343 545 320.50 566Q298 587 257 587Q221 587 196 569Q171 551 153 518L19 540Q48 625 112.50 670Q177 715 260 715Q325 715 377 688Q429 661 457.50 616.50Q486 572 486 521Q486 470 456.50 426.50Q427 383 376 352Q343 332 327 313.50Q311 295 311 268L311 229L183 229L183 268M247-10Q213-10 189.50 13Q166 36 166 69Q166 104 189.50 127Q213 150 247 150Q282 150 305 127Q328 104 328 69Q328 36 304.50 13Q281-10 247-10Z"  horiz-adv-x="521" vert-adv-y="1000"  />

      
      <glyph glyph-name="uni40" unicode="&#x40;" d="M469-140Q348-140 253-86.50Q158-33 105 60Q52 153 52 267Q52 380 107 472.50Q162 565 259 617.50Q356 670 476 670Q592 670 687.50 620.50Q783 571 837.50 484.50Q892 398 892 293Q892 225 869 171Q846 117 805 86.50Q764 56 713 56Q674 56 640.50 75Q607 94 593 140Q576 106 540 81Q504 56 446 56Q390 56 346 82Q302 108 277 154Q252 200 252 259Q252 318 277 364Q302 410 346 436Q390 462 446 462Q531 462 576 403L586 452L674 452L674 215Q674 181 687.50 161.50Q701 142 724 142Q756 142 775 179Q794 216 794 277Q794 364 753 433Q712 502 639 541Q566 580 474 580Q382 580 309 540Q236 500 195 429.50Q154 359 154 271Q154 180 194.50 107Q235 34 307.50-8Q380-50 474-50Q541-50 589.50-35Q638-20 666 4L787-16Q740-72 658-106Q576-140 469-140M468 153Q514 153 543 182.50Q572 212 572 259Q572 306 543 335.50Q514 365 468 365Q422 365 394.50 335.50Q367 306 367 259Q367 212 394.50 182.50Q422 153 468 153Z"  horiz-adv-x="939" vert-adv-y="1000"  />

      
      <glyph glyph-name="uni41" unicode="&#x41;" d="M723 0L575 0L525 141L204 141L153 0L7 0L276 705L462 705L723 0M356 557L251 269L480 269L379 557L356 557Z"  horiz-adv-x="730" vert-adv-y="1000"  />

      
      <glyph glyph-name="uni42" unicode="&#x42;" d="M490 362Q547 346 578 303.50Q609 261 609 200Q609 140 580 95Q551 50 497 25Q443 0 372 0L72 0L72 705L351 705Q421 705 474.50 680.50Q528 656 557.50 612Q587 568 587 512Q587 460 561.50 421Q536 382 490 362M212 584L212 415L351 415Q395 415 420.50 438Q446 461 446 499Q446 538 420.50 561Q395 584 351 584L212 584M372 121Q415 121 440.50 145Q466 169 466 208Q466 246 440.50 270Q415 294 372 294L212 294L212 121L372 121Z"  horiz-adv-x="651" vert-adv-y="1000"  />

      
      <glyph glyph-name="uni43" unicode="&#x43;" d="M385-10Q285-10 205.50 36.50Q126 83 81.50 165.50Q37 248 37 353Q37 457 82 539.50Q127 622 206.50 668.50Q286 715 387 715Q499 715 583.50 658.50Q668 602 704 503L565 480Q543 530 497.50 558.50Q452 587 392 587Q331 587 283.50 557.50Q236 528 209.50 474.50Q183 421 183 353Q183 284 209 230.50Q235 177 282 147.50Q329 118 390 118Q450 118 498.50 148Q547 178 570 230L709 207Q671 107 584 48.50Q497-10 385-10Z"  horiz-adv-x="731" vert-adv-y="1000"  />

      
      <glyph glyph-name="uni44" unicode="&#x44;" d="M72 0L72 705L350 705Q455 705 539 660Q623 615 670 535Q717 455 717 353Q717 251 670 170.50Q623 90 539 45Q455 0 350 0L72 0M350 128Q414 128 464.50 156.50Q515 185 543 236Q571 287 571 353Q571 418 543 469Q515 520 464.50 548.50Q414 577 350 577L212 577L212 128L350 128Z"  horiz-adv-x="754" vert-adv-y="1000"  />

      
      <glyph glyph-name="uni45" unicode="&#x45;" d="M559 0L72 0L72 705L549 705L549 577L212 577L212 416L517 416L517 295L212 295L212 128L559 128L559 0Z"  horiz-adv-x="611" vert-adv-y="1000"  />

      
      <glyph glyph-name="uni46" unicode="&#x46;" d="M212 0L72 0L72 705L531 705L531 577L212 577L212 402L499 402L499 274L212 274L212 0Z"  horiz-adv-x="573" vert-adv-y="1000"  />

      
      <glyph glyph-name="uni47" unicode="&#x47;" d="M383 384L743 384L743 355Q743 248 700 165Q657 82 578.50 36Q500-10 397-10Q293-10 211 36Q129 82 83 164.50Q37 247 37 353Q37 458 82 540.50Q127 623 207 669Q287 715 390 715Q502 715 585.50 658Q669 601 704 504L565 480Q510 587 393 587Q331 587 283 557.50Q235 528 209 474.50Q183 421 183 353Q183 284 210.50 231Q238 178 286.50 148Q335 118 397 118Q468 118 519 157Q570 196 592 263L383 263L383 384Z"  horiz-adv-x="770" vert-adv-y="1000"  />

      
      <glyph glyph-name="uni48" unicode="&#x48;" d="M523 419L523 705L663 705L663 0L523 0L523 291L212 291L212 0L72 0L72 705L212 705L212 419L523 419Z"  horiz-adv-x="735" vert-adv-y="1000"  />

      
      <glyph glyph-name="uni49" unicode="&#x49;" d="M217 0L77 0L77 705L217 705L217 0Z"  horiz-adv-x="294" vert-adv-y="1000"  />

      
      <glyph glyph-name="uni4a" unicode="&#x4a;" d="M22 0L12 128L120 128Q161 128 184 155.50Q207 183 207 232L207 705L347 705L347 232Q347 123 287 61.50Q227 0 120 0L22 0Z"  horiz-adv-x="414" vert-adv-y="1000"  />

      
      <glyph glyph-name="uni4b" unicode="&#x4b;" d="M352 367L662 0L484 0L239 297L212 297L212 0L72 0L72 705L212 705L212 423L237 423L471 705L637 705L352 367Z"  horiz-adv-x="659" vert-adv-y="1000"  />

      
      <glyph glyph-name="uni4c" unicode="&#x4c;" d="M547 0L72 0L72 705L212 705L212 128L547 128L547 0Z"  horiz-adv-x="559" vert-adv-y="1000"  />

      
      <glyph glyph-name="uni4d" unicode="&#x4d;" d="M208 0L72 0L72 705L285 705L460 201L477 201L658 705L866 705L866 0L730 0L730 509L712 509L530 0L403 0L226 509L208 509L208 0Z"  horiz-adv-x="938" vert-adv-y="1000"  />

      
      <glyph glyph-name="uni4e" unicode="&#x4e;" d="M208 0L72 0L72 705L274 705L557 175L574 175L574 705L710 705L710 0L508 0L225 530L208 530L208 0Z"  horiz-adv-x="782" vert-adv-y="1000"  />

      
      <glyph glyph-name="uni4f" unicode="&#x4f;" d="M400-10Q295-10 212.50 36.50Q130 83 83.50 165.50Q37 248 37 353Q37 458 83.50 540.50Q130 623 212.50 669Q295 715 400 715Q506 715 588.50 669Q671 623 717.50 540.50Q764 458 764 353Q764 248 717.50 165.50Q671 83 588.50 36.50Q506-10 400-10M400 118Q464 118 513.50 147.50Q563 177 591 230.50Q619 284 619 353Q619 421 591 474.50Q563 528 513.50 557.50Q464 587 400 587Q336 587 286.50 557.50Q237 528 209.50 474.50Q182 421 182 353Q182 284 209.50 230.50Q237 177 286.50 147.50Q336 118 400 118Z"  horiz-adv-x="801" vert-adv-y="1000"  />

      
      <glyph glyph-name="uni50" unicode="&#x50;" d="M72 0L72 705L324 705Q402 705 463 674Q524 643 558.50 588Q593 533 593 462Q593 392 558.50 337Q524 282 462.50 250.50Q401 219 324 219L212 219L212 0L72 0M324 344Q382 344 416 376.50Q450 409 450 462Q450 515 416 547.50Q382 580 324 580L212 580L212 344L324 344Z"  horiz-adv-x="615" vert-adv-y="1000"  />

      
      <glyph glyph-name="uni51" unicode="&#x51;" d="M764 353Q764 258 725.50 181Q687 104 619 55L722-101L571-101L503 3Q457-10 400-10Q295-10 212.50 36.50Q130 83 83.50 165.50Q37 248 37 353Q37 458 83.50 540.50Q130 623 212.50 669Q295 715 400 715Q506 715 588.50 669Q671 623 717.50 540.50Q764 458 764 353M400 118Q418 118 426 119L333 261L484 261L544 170Q580 201 599.50 248.50Q619 296 619 353Q619 421 591 474.50Q563 528 513.50 557.50Q464 587 400 587Q336 587 286.50 557.50Q237 528 209.50 474.50Q182 421 182 353Q182 284 209.50 230.50Q237 177 286.50 147.50Q336 118 400 118Z"  horiz-adv-x="801" vert-adv-y="1000"  />

      
      <glyph glyph-name="uni52" unicode="&#x52;" d="M622 0L458 0L278 249L212 249L212 0L72 0L72 705L336 705Q413 705 472.50 676Q532 647 565 595Q598 543 598 477Q598 399 553 342Q508 285 430 262L622 0M212 580L212 374L336 374Q391 374 423 402.50Q455 431 455 477Q455 523 423 551.50Q391 580 336 580L212 580Z"  horiz-adv-x="654" vert-adv-y="1000"  />

      
      <glyph glyph-name="uni53" unicode="&#x53;" d="M307-10Q207-10 129.50 45Q52 100 27 192L163 215Q194 165 225 141.50Q256 118 309 118Q353 118 382 137.50Q411 157 411 192Q411 230 378.50 250.50Q346 271 278 292Q211 314 167.50 335Q124 356 92.50 399Q61 442 61 511Q61 574 92 620.50Q123 667 176.50 691Q230 715 295 715Q390 715 458 664.50Q526 614 554 527L421 505Q382 587 301 587Q261 587 232.50 569Q204 551 204 517Q204 491 221 473.50Q238 456 264 444.50Q290 433 338 417Q405 395 448 373Q491 351 522.50 308Q554 265 554 196Q554 133 520.50 86Q487 39 430.50 14.50Q374-10 307-10Z"  horiz-adv-x="596" vert-adv-y="1000"  />

      
      <glyph glyph-name="uni54" unicode="&#x54;" d="M381 0L241 0L241 577L7 577L7 705L615 705L615 577L381 577L381 0Z"  horiz-adv-x="622" vert-adv-y="1000"  />

      
      <glyph glyph-name="uni55" unicode="&#x55;" d="M352-10Q268-10 202 27.50Q136 65 99 131.50Q62 198 62 282L62 705L202 705L202 282Q202 209 244 163.50Q286 118 352 118Q420 118 462 163.50Q504 209 504 282L504 705L644 705L644 282Q644 198 606.50 131.50Q569 65 502.50 27.50Q436-10 352-10Z"  horiz-adv-x="706" vert-adv-y="1000"  />

      
      <glyph glyph-name="uni56" unicode="&#x56;" d="M452 0L252 0L7 705L157 705L342 148L365 148L556 705L704 705L452 0Z"  horiz-adv-x="711" vert-adv-y="1000"  />

      
      <glyph glyph-name="uni57" unicode="&#x57;" d="M388 0L179 0L7 705L152 705L284 148L301 148L445 705L590 705L727 148L744 148L888 705L1030 705L848 0L635 0L524 470L506 470L388 0Z"  horiz-adv-x="1037" vert-adv-y="1000"  />

      
      <glyph glyph-name="uni58" unicode="&#x58;" d="M169 0L7 0L231 360L25 705L191 705L328 458L346 458L490 705L652 705L445 368L669 0L505 0L351 269L333 269L169 0Z"  horiz-adv-x="676" vert-adv-y="1000"  />

      
      <glyph glyph-name="uni59" unicode="&#x59;" d="M395 0L255 0L255 200L-3 705L152 705L317 372L339 372L510 705L663 705L395 199L395 0Z"  horiz-adv-x="660" vert-adv-y="1000"  />

      
      <glyph glyph-name="uni5a" unicode="&#x5a;" d="M598 0L47 0L47 153L426 554L426 572L57 572L57 705L593 705L593 552L215 151L215 133L598 133L598 0Z"  horiz-adv-x="640" vert-adv-y="1000"  />

      
      <glyph glyph-name="uni5b" unicode="&#x5b;" d="M320-205L72-205L72 730L320 730L320 607L204 607L204-82L320-82L320-205Z"  horiz-adv-x="333" vert-adv-y="1000"  />

      
      <glyph glyph-name="uni5c" unicode="&#x5c;" d="M426-200L290-200L0 730L136 730L426-200Z"  horiz-adv-x="426" vert-adv-y="1000"  />

      
      <glyph glyph-name="uni5d" unicode="&#x5d;" d="M261-205L13-205L13-82L129-82L129 607L13 607L13 730L261 730L261-205Z"  horiz-adv-x="333" vert-adv-y="1000"  />

      
      <glyph glyph-name="uni5e" unicode="&#x5e;" d="M158 372L32 372L184 705L328 705L480 372L353 372L264 576L246 576L158 372Z"  horiz-adv-x="512" vert-adv-y="1000"  />

      
      <glyph glyph-name="uni5f" unicode="&#x5f;" d="M516-205L-5-205L-5-87L516-87L516-205Z"  horiz-adv-x="511" vert-adv-y="1000"  />

      
      <glyph glyph-name="uni61" unicode="&#x61;" d="M284 534Q389 534 449 470.50Q509 407 509 295L509 0L406 0L381 82Q359 44 315 17Q271-10 212-10Q161-10 120 11.50Q79 33 55.50 71Q32 109 32 156Q32 231 91.50 275.50Q151 320 265 320L373 320Q370 364 345 392Q320 420 277 420Q241 420 216.50 402Q192 384 181 361L57 382Q75 453 138 493.50Q201 534 284 534M249 103Q304 103 338 138.50Q372 174 374 225L270 225Q168 225 168 167Q168 138 190 120.50Q212 103 249 103Z"  horiz-adv-x="566" vert-adv-y="1000"  />

      
      <glyph glyph-name="uni62" unicode="&#x62;" d="M393-10Q329-10 277.50 17.50Q226 45 196 82L172 0L67 0L67 705L202 705L202 449Q234 484 283 509Q332 534 393 534Q467 534 525 499Q583 464 615.50 402Q648 340 648 262Q648 184 615.50 122Q583 60 525 25Q467-10 393-10M356 110Q423 110 465 153Q507 196 507 262Q507 328 465 371Q423 414 356 414Q288 414 245 371Q202 328 202 262Q202 196 245 153Q288 110 356 110Z"  horiz-adv-x="680" vert-adv-y="1000"  />

      
      <glyph glyph-name="uni63" unicode="&#x63;" d="M307-10Q228-10 165 25Q102 60 67 122Q32 184 32 262Q32 340 67 402Q102 464 165 499Q228 534 307 534Q396 534 464.50 489Q533 444 560 361L433 340Q418 373 386 392Q354 411 314 411Q252 411 212.50 369Q173 327 173 262Q173 197 212.50 155Q252 113 314 113Q355 113 387 132Q419 151 437 183L564 162Q536 79 465.50 34.50Q395-10 307-10Z"  horiz-adv-x="577" vert-adv-y="1000"  />

      
      <glyph glyph-name="uni64" unicode="&#x64;" d="M287-10Q213-10 155 25Q97 60 64.50 122Q32 184 32 262Q32 340 64.50 402Q97 464 155 499Q213 534 287 534Q348 534 397 509Q446 484 478 449L478 705L613 705L613 0L508 0L484 82Q454 45 402.50 17.50Q351-10 287-10M324 110Q392 110 435 153Q478 196 478 262Q478 328 435 371Q392 414 324 414Q257 414 215 371Q173 328 173 262Q173 196 215 153Q257 110 324 110Z"  horiz-adv-x="680" vert-adv-y="1000"  />

      
      <glyph glyph-name="uni65" unicode="&#x65;" d="M584 270Q584 251 582 227L170 227Q180 173 218 141.50Q256 110 314 110Q354 110 385 125Q416 140 434 166L561 145Q535 71 464 30.50Q393-10 306-10Q227-10 164.50 25Q102 60 67 122Q32 184 32 262Q32 340 67.50 402Q103 464 166 499Q229 534 308 534Q387 534 450 499Q513 464 548.50 403.50Q584 343 584 270M308 421Q261 421 226 394.50Q191 368 177 324L437 324Q423 367 388.50 394Q354 421 308 421Z"  horiz-adv-x="606" vert-adv-y="1000"  />

      
      <glyph glyph-name="uni66" unicode="&#x66;" d="M228 524L379 524L379 408L228 408L228 0L93 0L93 408L12 408L12 524L93 524L93 543Q93 622 140 663.50Q187 705 275 705L379 705L391 589L275 589Q228 589 228 543L228 524Z"  horiz-adv-x="388" vert-adv-y="1000"  />

      
      <glyph glyph-name="uni67" unicode="&#x67;" d="M304-205Q212-205 141.50-160.50Q71-116 42-37L175-16Q220-82 306-82Q369-82 413-47Q457-12 457 69L457 107Q429 67 382.50 45.50Q336 24 278 24Q207 24 151 56.50Q95 89 63.50 147Q32 205 32 279Q32 353 63.50 411Q95 469 151 501.50Q207 534 278 534Q340 534 388 510Q436 486 464 441L488 520L592 520L592 68Q592-21 553-82.50Q514-144 448.50-174.50Q383-205 304-205M314 144Q378 144 417.50 181.50Q457 219 457 279Q457 339 417.50 376.50Q378 414 314 414Q251 414 212 376.50Q173 339 173 279Q173 219 212 181.50Q251 144 314 144Z"  horiz-adv-x="654" vert-adv-y="1000"  />

      
      <glyph glyph-name="uni68" unicode="&#x68;" d="M67 0L67 705L202 705L202 458Q228 493 268 513.50Q308 534 351 534Q407 534 453 505.50Q499 477 525.50 426.50Q552 376 552 314L552 0L417 0L417 296Q417 348 387 381Q357 414 310 414Q261 414 231.50 381.50Q202 349 202 296L202 0L67 0Z"  horiz-adv-x="609" vert-adv-y="1000"  />

      
      <glyph glyph-name="uni69" unicode="&#x69;" d="M202 0L67 0L67 524L202 524L202 0M135 588Q99 588 76 610.50Q53 633 53 668Q53 703 76 726Q99 749 135 749Q170 749 193 726Q216 703 216 668Q216 633 193 610.50Q170 588 135 588Z"  horiz-adv-x="269" vert-adv-y="1000"  />

      
      <glyph glyph-name="uni6a" unicode="&#x6a;" d="M-59-205L-70-82L35-82Q82-82 82-36L82 524L217 524L217-43Q217-122 170.50-163.50Q124-205 35-205L-59-205M150 588Q114 588 91 610.50Q68 633 68 668Q68 703 91 726Q114 749 150 749Q185 749 208 726Q231 703 231 668Q231 633 208 610.50Q185 588 150 588Z"  horiz-adv-x="279" vert-adv-y="1000"  />

      
      <glyph glyph-name="uni6b" unicode="&#x6b;" d="M569 0L398 0L227 203L202 203L202 0L67 0L67 705L202 705L202 325L226 325L394 524L551 524L334 273L569 0Z"  horiz-adv-x="566" vert-adv-y="1000"  />

      
      <glyph glyph-name="uni6c" unicode="&#x6c;" d="M202 0L67 0L67 705L202 705L202 0Z"  horiz-adv-x="269" vert-adv-y="1000"  />

      
      <glyph glyph-name="uni6d" unicode="&#x6d;" d="M62 0L62 524L167 524L189 449Q209 485 245.50 509.50Q282 534 335 534Q388 534 428.50 510Q469 486 489 444Q507 479 549.50 506.50Q592 534 649 534Q703 534 746.50 506Q790 478 814.50 428.50Q839 379 839 317L839 0L704 0L704 302Q704 349 678 381.50Q652 414 611 414Q570 414 544 381.50Q518 349 518 302L518 0L383 0L383 302Q383 349 357 381.50Q331 414 290 414Q249 414 223 381.50Q197 349 197 302L197 0L62 0Z"  horiz-adv-x="896" vert-adv-y="1000"  />

      
      <glyph glyph-name="uni6e" unicode="&#x6e;" d="M62 0L62 524L167 524L190 447Q216 487 257.50 510.50Q299 534 346 534Q402 534 448 505.50Q494 477 520.50 426.50Q547 376 547 314L547 0L412 0L412 296Q412 348 382 381Q352 414 305 414Q256 414 226.50 381.50Q197 349 197 296L197 0L62 0Z"  horiz-adv-x="604" vert-adv-y="1000"  />

      
      <glyph glyph-name="uni6f" unicode="&#x6f;" d="M316-10Q234-10 169.50 25Q105 60 68.50 121.50Q32 183 32 262Q32 341 68.50 402.50Q105 464 169.50 499Q234 534 316 534Q398 534 463 499Q528 464 564 402.50Q600 341 600 262Q600 183 564 121.50Q528 60 463 25Q398-10 316-10M316 113Q380 113 419.50 154.50Q459 196 459 262Q459 328 419.50 369.50Q380 411 316 411Q252 411 212.50 369.50Q173 328 173 262Q173 196 212.50 154.50Q252 113 316 113Z"  horiz-adv-x="632" vert-adv-y="1000"  />

      
      <glyph glyph-name="uni70" unicode="&#x70;" d="M62-205L62 524L167 524L191 442Q221 479 272.50 506.50Q324 534 388 534Q462 534 520 499Q578 464 610.50 402Q643 340 643 262Q643 184 610.50 122Q578 60 520 25Q462-10 388-10Q327-10 278 15Q229 40 197 75L197-205L62-205M351 110Q418 110 460 153Q502 196 502 262Q502 328 460 371Q418 414 351 414Q283 414 240 371Q197 328 197 262Q197 196 240 153Q283 110 351 110Z"  horiz-adv-x="675" vert-adv-y="1000"  />

      
      <glyph glyph-name="uni71" unicode="&#x71;" d="M478 75Q446 40 397 15Q348-10 287-10Q213-10 155 25Q97 60 64.50 122Q32 184 32 262Q32 340 64.50 402Q97 464 155 499Q213 534 287 534Q351 534 402.50 506.50Q454 479 484 442L508 524L613 524L613-205L478-205L478 75M324 110Q392 110 435 153Q478 196 478 262Q478 328 435 371Q392 414 324 414Q257 414 215 371Q173 328 173 262Q173 196 215 153Q257 110 324 110Z"  horiz-adv-x="675" vert-adv-y="1000"  />

      
      <glyph glyph-name="uni72" unicode="&#x72;" d="M62 0L62 524L167 524L188 451Q216 495 252 509.50Q288 524 339 524L358 524L370 395L292 395Q244 395 220.50 374Q197 353 197 306L197 0L62 0Z"  horiz-adv-x="377" vert-adv-y="1000"  />

      
      <glyph glyph-name="uni73" unicode="&#x73;" d="M256-10Q164-10 103.50 34Q43 78 27 155L152 176Q164 143 192.50 123Q221 103 264 103Q298 103 322.50 114.50Q347 126 347 149Q347 173 320 187Q293 201 245 211Q161 229 109.50 264Q58 299 58 375Q58 454 117.50 494Q177 534 264 534Q345 534 403.50 492Q462 450 483 377L358 356Q346 387 321.50 404Q297 421 264 421Q235 421 214 408.50Q193 396 193 376Q193 352 222 338Q251 324 306 311Q383 293 432.50 259Q482 225 482 154Q482 110 458.50 72.50Q435 35 384 12.50Q333-10 256-10Z"  horiz-adv-x="520" vert-adv-y="1000"  />

      
      <glyph glyph-name="uni74" unicode="&#x74;" d="M386 116L374 0L270 0Q180 0 134 41.50Q88 83 88 162L88 408L7 408L7 524L88 524L119 674L223 674L223 524L374 524L374 408L223 408L223 162Q223 116 270 116L386 116Z"  horiz-adv-x="408" vert-adv-y="1000"  />

      
      <glyph glyph-name="uni75" unicode="&#x75;" d="M255-10Q200-10 154.50 18.50Q109 47 83 97.50Q57 148 57 210L57 524L192 524L192 228Q192 176 221.50 143Q251 110 297 110Q344 110 373 142.50Q402 175 402 228L402 524L537 524L537 0L432 0L409 78Q384 38 342.50 14Q301-10 255-10Z"  horiz-adv-x="599" vert-adv-y="1000"  />

      
      <glyph glyph-name="uni76" unicode="&#x76;" d="M380 0L196 0L7 524L150 524L279 150L301 150L434 524L572 524L380 0Z"  horiz-adv-x="579" vert-adv-y="1000"  />

      
      <glyph glyph-name="uni77" unicode="&#x77;" d="M340 0L145 0L7 524L146 524L243 137L260 137L361 524L491 524L592 137L610 137L706 524L839 524L703 0L511 0L434 302L416 302L340 0Z"  horiz-adv-x="846" vert-adv-y="1000"  />

      
      <glyph glyph-name="uni78" unicode="&#x78;" d="M149 0L0 0L160 268L18 524L167 524L255 359L276 359L367 524L514 524L372 275L534 0L382 0L279 187L258 187L149 0Z"  horiz-adv-x="534" vert-adv-y="1000"  />

      
      <glyph glyph-name="uni79" unicode="&#x79;" d="M435 524L571 524L361-49Q330-131 284-168Q238-205 160-205L78-205L67-82L170-82Q197-82 212-70Q227-58 239-26L7 524L151 524L292 176L310 176L435 524Z"  horiz-adv-x="588" vert-adv-y="1000"  />

      
      <glyph glyph-name="uni7a" unicode="&#x7a;" d="M491 0L37 0L37 139L320 386L320 404L48 404L48 524L484 524L484 385L202 138L202 120L491 120L491 0Z"  horiz-adv-x="524" vert-adv-y="1000"  />

      
      <glyph glyph-name="uni7b" unicode="&#x7b;" d="M281-205Q195-205 150.50-164Q106-123 106-43L106 137Q106 169 89 185Q72 201 27 201L27 324Q72 324 89 340Q106 356 106 387L106 568Q106 648 150.50 689Q195 730 281 730L341 730L341 607L281 607Q260 607 250.50 598Q241 589 241 568L241 387Q241 333 218 307.50Q195 282 146 272L146 254Q195 245 218 218.50Q241 192 241 137L241-43Q241-64 250.50-73Q260-82 281-82L341-82L341-205L281-205Z"  horiz-adv-x="354" vert-adv-y="1000"  />

      
      <glyph glyph-name="uni7c" unicode="&#x7c;" d="M232-205L102-205L102 730L232 730L232-205Z"  horiz-adv-x="334" vert-adv-y="1000"  />

      
      <glyph glyph-name="uni7d" unicode="&#x7d;" d="M13-205L13-82L73-82Q94-82 103.50-73Q113-64 113-43L113 137Q113 192 136 218.50Q159 245 208 254L208 272Q159 282 136 307.50Q113 333 113 387L113 568Q113 589 103.50 598Q94 607 73 607L13 607L13 730L73 730Q160 730 204 689Q248 648 248 568L248 387Q248 356 265 340Q282 324 327 324L327 201Q282 201 265 185Q248 169 248 137L248-43Q248-123 204-164Q160-205 73-205L13-205Z"  horiz-adv-x="354" vert-adv-y="1000"  />

      
      <glyph glyph-name="uni7e" unicode="&#x7e;" d="M402 241Q362 241 336.50 253.50Q311 266 282 290Q263 305 252 311.50Q241 318 227 318Q201 318 186 299Q171 280 171 246L49 246Q49 338 92.50 387.50Q136 437 216 437Q256 437 282.50 424Q309 411 336 388Q353 374 365 367Q377 360 390 360Q417 360 432 379Q447 398 447 432L569 432Q569 342 525 291.50Q481 241 402 241Z"  horiz-adv-x="618" vert-adv-y="1000"  />

      
      <glyph glyph-name="unia2" unicode="&#xa2;" d="M562 245Q540 177 487 134Q434 91 364 78L364-37L250-37L250 78Q185 89 136 126Q87 163 59.50 219.50Q32 276 32 345Q32 414 59.50 470.50Q87 527 136 564Q185 601 250 612L250 727L364 727L364 612Q433 599 484.50 556Q536 513 558 444L432 423Q417 455 385 474.50Q353 494 314 494Q250 494 210 452Q170 410 170 345Q170 280 210 238Q250 196 314 196Q353 196 386 215Q419 234 436 266L562 245Z"  horiz-adv-x="575" vert-adv-y="1000"  />

      
      <glyph glyph-name="unia3" unicode="&#xa3;" d="M263 191Q263 148 240 128L577 128L577 0L42 0L42 128L72 128Q123 128 123 190L123 283L41 283L41 392L123 392L123 496Q123 560 152 610Q181 660 233 687.50Q285 715 351 715Q442 715 503 666Q564 617 591 527L455 504Q437 547 412 567Q387 587 353 587Q312 587 287.50 562Q263 537 263 496L263 392L460 392L460 283L263 283L263 191Z"  horiz-adv-x="604" vert-adv-y="1000"  />

      
      <glyph glyph-name="unia4" unicode="&#xa4;" d="M112 79L42 144L105 207Q71 262 71 330Q71 398 105 453L42 517L112 581L171 521Q227 556 297 556Q365 556 421 521L481 581L551 517L487 453Q522 399 522 330Q522 261 487 207L551 144L481 79L421 139Q365 104 297 104Q227 104 171 139L112 79M297 216Q345 216 375.50 248Q406 280 406 330Q406 380 375.50 412Q345 444 297 444Q248 444 217.50 412Q187 380 187 330Q187 280 217.50 248Q248 216 297 216Z"  horiz-adv-x="593" vert-adv-y="1000"  />

      
      <glyph glyph-name="unia5" unicode="&#xa5;" d="M495 705L643 705L473 371L573 371L573 283L428 283L402 232L573 232L573 144L385 144L385 0L245 0L245 144L58 144L58 232L229 232L204 283L58 283L58 371L161 371L-3 705L148 705L308 371L328 371L495 705Z"  horiz-adv-x="640" vert-adv-y="1000"  />

      
      <glyph glyph-name="unia7" unicode="&#xa7;" d="M284-122Q201-122 142.50-80Q84-38 56 35L185 57Q204 23 227.50 5.50Q251-12 286-12Q313-12 334.50-1Q356 10 356 39Q356 64 336.50 78Q317 92 281 104L221 125Q134 155 93 194.50Q52 234 52 299Q52 393 141 441Q90 487 90 550Q90 598 117 635.50Q144 673 191 694Q238 715 297 715Q380 715 438.50 673Q497 631 525 558L396 536Q377 570 353.50 587.50Q330 605 295 605Q268 605 246.50 594Q225 583 225 554Q225 529 244.50 515Q264 501 300 489L360 468Q447 438 488 398.50Q529 359 529 294Q529 200 440 152Q491 106 491 43Q491-5 464-42.50Q437-80 390-101Q343-122 284-122M346 207Q372 217 388 236.50Q404 256 404 281Q404 310 382 326.50Q360 343 316 358L235 386Q209 376 193 356.50Q177 337 177 312Q177 283 199 266.50Q221 250 265 235L346 207Z"  horiz-adv-x="581" vert-adv-y="1000"  />

      
      <glyph glyph-name="unia9" unicode="&#xa9;" d="M428-10Q322-10 236 37.50Q150 85 101 168Q52 251 52 353Q52 455 101 538Q150 621 236 668Q322 715 428 715Q534 715 620 668Q706 621 755 538Q804 455 804 353Q804 251 755 168Q706 85 620 37.50Q534-10 428-10M428 78Q509 78 573.50 113.50Q638 149 674.50 212Q711 275 711 353Q711 431 674.50 493.50Q638 556 573.50 591.50Q509 627 428 627Q348 627 283 591.50Q218 556 181.50 493.50Q145 431 145 353Q145 275 181.50 212Q218 149 283 113.50Q348 78 428 78M434 178Q383 178 343 200.50Q303 223 280.50 263Q258 303 258 353Q258 403 280.50 443Q303 483 343.50 505.50Q384 528 435 528Q494 528 538 498.50Q582 469 599 414L512 401Q504 421 483 433Q462 445 437 445Q401 445 377 419Q353 393 353 353Q353 313 377 287Q401 261 437 261Q462 261 482 273Q502 285 510 305L599 289Q582 236 536.50 207Q491 178 434 178Z"  horiz-adv-x="856" vert-adv-y="1000"  />

      
      <glyph glyph-name="uniab" unicode="&#xab;" d="M332 47L177 47L12 266L177 484L332 484L168 266L332 47M584 47L428 47L262 266L428 484L583 484L418 266L584 47Z"  horiz-adv-x="601" vert-adv-y="1000"  />

      
      <glyph glyph-name="uniad" unicode="&#xad;" d="M378 221L52 221L52 347L378 347L378 221Z"  horiz-adv-x="430" vert-adv-y="1000"  />

      
      <glyph glyph-name="uniae" unicode="&#xae;" d="M283 739Q351 739 406.50 708Q462 677 493.50 623.50Q525 570 525 503Q525 436 493.50 382Q462 328 406.50 297Q351 266 283 266Q215 266 160 297Q105 328 73.50 382Q42 436 42 503Q42 569 73.50 623Q105 677 160 708Q215 739 283 739M283 325Q334 325 373.50 348Q413 371 435.50 411.50Q458 452 458 503Q458 554 435.50 594.50Q413 635 373.50 657.50Q334 680 283 680Q233 680 193 657.50Q153 635 131 594.50Q109 554 109 503Q109 452 131 411.50Q153 371 193 348Q233 325 283 325M388 541Q388 519 375.50 502Q363 485 341 476L389 393L320 393L280 466L258 466L258 393L193 393L193 616L293 616Q334 616 361 594.50Q388 573 388 541M258 565L258 517L293 517Q306 517 314.50 523.50Q323 530 323 541Q323 552 314.50 558.50Q306 565 293 565L258 565Z"  horiz-adv-x="567" vert-adv-y="1000"  />

      
      <glyph glyph-name="unib0" unicode="&#xb0;" d="M192 393Q120 393 73.50 438.50Q27 484 27 555Q27 625 73.50 670Q120 715 192 715Q265 715 311 670.50Q357 626 357 555Q357 484 311 438.50Q265 393 192 393M192 485Q223 485 241.50 504.50Q260 524 260 555Q260 585 241.50 604Q223 623 192 623Q162 623 143 604Q124 585 124 555Q124 524 143 504.50Q162 485 192 485Z"  horiz-adv-x="384" vert-adv-y="1000"  />

      
      <glyph glyph-name="unib1" unicode="&#xb1;" d="M368 208L250 208L250 368L62 368L62 486L250 486L250 646L368 646L368 486L556 486L556 368L368 368L368 208M556 48L62 48L62 165L556 165L556 48Z"  horiz-adv-x="618" vert-adv-y="1000"  />

      
      <glyph glyph-name="unib6" unicode="&#xb6;" d="M213 279Q154 279 108 306Q62 333 37 381.50Q12 430 12 492Q12 554 37 602.50Q62 651 108 678Q154 705 213 705L525 705L525-110L417-110L417 609L321 609L321-110L213-110L213 279Z"  horiz-adv-x="597" vert-adv-y="1000"  />

      
      <glyph glyph-name="unib7" unicode="&#xb7;" d="M120 205Q86 205 62.50 228Q39 251 39 284Q39 319 62.50 342Q86 365 120 365Q155 365 178 342Q201 319 201 284Q201 251 177.50 228Q154 205 120 205Z"  horiz-adv-x="240" vert-adv-y="1000"  />

      
      <glyph glyph-name="unibb" unicode="&#xbb;" d="M173 47L17 47L183 266L18 484L173 484L339 266L173 47M424 47L269 47L433 266L269 484L424 484L589 266L424 47Z"  horiz-adv-x="601" vert-adv-y="1000"  />

      
      <glyph glyph-name="unid7" unicode="&#xd7;" d="M309 260L165 116L86 195L230 339L86 483L165 562L309 418L453 562L532 483L388 339L532 195L453 116L309 260Z"  horiz-adv-x="618" vert-adv-y="1000"  />

      
      <glyph glyph-name="unif7" unicode="&#xf7;" d="M309 455Q275 455 252 478Q229 501 229 535Q229 569 252 592Q275 615 309 615Q343 615 366 592Q389 569 389 535Q389 501 366 478Q343 455 309 455M556 280L62 280L62 398L556 398L556 280M309 63Q275 63 252 86Q229 109 229 143Q229 177 252 200Q275 223 309 223Q343 223 366 200Q389 177 389 143Q389 109 366 86Q343 63 309 63Z"  horiz-adv-x="618" vert-adv-y="1000"  />

      
      <glyph glyph-name="uni0131" unicode="&#x0131;" d="M202 0L67 0L67 524L202 524L202 0Z"  horiz-adv-x="269" vert-adv-y="1000"  />

      
      <glyph glyph-name="uni0237" unicode="&#x0237;" d="M-59-205L-70-82L35-82Q82-82 82-36L82 524L217 524L217-43Q217-122 170.50-163.50Q124-205 35-205L-59-205Z"  horiz-adv-x="279" vert-adv-y="1000"  />

      
      <glyph glyph-name="uni0307" unicode="&#x0307;" d="M-111 588Q-147 588-170 610.50Q-193 633-193 668Q-193 703-170 726Q-147 749-111 749Q-76 749-53 726Q-30 703-30 668Q-30 633-53 610.50Q-76 588-111 588Z"   vert-adv-y="1000"  />

      
      <glyph glyph-name="uni0308" unicode="&#x0308;" d="M-326 588Q-362 588-385 610.50Q-408 633-408 668Q-408 703-385 726Q-362 749-326 749Q-291 749-268 726Q-245 703-245 668Q-245 633-268 610.50Q-291 588-326 588M-111 588Q-147 588-170 610.50Q-193 633-193 668Q-193 703-170 726Q-147 749-111 749Q-76 749-53 726Q-30 703-30 668Q-30 633-53 610.50Q-76 588-111 588Z"   vert-adv-y="1000"  />

      
      <glyph glyph-name="uni0401" unicode="&#x0401;" d="M559 0L72 0L72 705L549 705L549 577L212 577L212 416L517 416L517 295L212 295L212 128L559 128L559 0M206 772Q170 772 147 794.50Q124 817 124 852Q124 887 147 910Q170 933 206 933Q241 933 264 910Q287 887 287 852Q287 817 264 794.50Q241 772 206 772M424 772Q388 772 365 794.50Q342 817 342 852Q342 887 365 910Q388 933 424 933Q459 933 482 910Q505 887 505 852Q505 817 482 794.50Q459 772 424 772Z"  horiz-adv-x="611" vert-adv-y="1000"  />

      
      <glyph glyph-name="uni0404" unicode="&#x0404;" d="M719 207Q681 109 593.50 49.50Q506-10 390-10Q289-10 208.50 36Q128 82 82.50 165Q37 248 37 353Q37 457 83 539.50Q129 622 210.50 668.50Q292 715 393 715Q508 715 592.50 658.50Q677 602 714 503L575 480Q551 532 504.50 559.50Q458 587 398 587Q320 587 264 541.50Q208 496 190 419L503 419L503 298L188 298Q203 216 259 167Q315 118 395 118Q457 118 506.50 148Q556 178 580 230L719 207Z"  horiz-adv-x="741" vert-adv-y="1000"  />

      
      <glyph glyph-name="uni0406" unicode="&#x0406;" d="M217 0L77 0L77 705L217 705L217 0Z"  horiz-adv-x="294" vert-adv-y="1000"  />

      
      <glyph glyph-name="uni0407" unicode="&#x0407;" d="M217 0L77 0L77 705L217 705L217 0M39 772Q3 772-20 794.50Q-43 817-43 852Q-43 887-20 910Q3 933 39 933Q74 933 97 910Q120 887 120 852Q120 817 97 794.50Q74 772 39 772M257 772Q221 772 198 794.50Q175 817 175 852Q175 887 198 910Q221 933 257 933Q292 933 315 910Q338 887 338 852Q338 817 315 794.50Q292 772 257 772Z"  horiz-adv-x="294" vert-adv-y="1000"  />

      
      <glyph glyph-name="uni040E" unicode="&#x040E;" d="M488 705L629 705L403 170Q364 76 316 38Q268 0 186 0L82 0L70 128L186 128Q216 128 234 136.50Q252 145 264 164L-3 705L151 705L320 348L337 348L488 705M319 761Q241 761 189.50 798.50Q138 836 130 915L242 915Q246 889 265.50 875Q285 861 319 861Q353 861 372.50 875Q392 889 396 915L508 915Q500 836 448.50 798.50Q397 761 319 761Z"  horiz-adv-x="631" vert-adv-y="1000"  />

      
      <glyph glyph-name="uni0410" unicode="&#x0410;" d="M723 0L575 0L525 141L204 141L153 0L7 0L276 705L462 705L723 0M356 557L251 269L480 269L379 557L356 557Z"  horiz-adv-x="730" vert-adv-y="1000"  />

      
      <glyph glyph-name="uni0411" unicode="&#x0411;" d="M72 0L72 705L541 705L541 577L212 577L212 456L338 456Q412 456 470.50 427Q529 398 561.50 346Q594 294 594 229Q594 163 561.50 111Q529 59 470.50 29.50Q412 0 338 0L72 0M338 121Q389 121 420 150.50Q451 180 451 229Q451 276 420 305.50Q389 335 338 335L212 335L212 121L338 121Z"  horiz-adv-x="631" vert-adv-y="1000"  />

      
      <glyph glyph-name="uni0412" unicode="&#x0412;" d="M490 362Q547 346 578 303.50Q609 261 609 200Q609 140 580 95Q551 50 497 25Q443 0 372 0L72 0L72 705L351 705Q421 705 474.50 680.50Q528 656 557.50 612Q587 568 587 512Q587 460 561.50 421Q536 382 490 362M212 584L212 415L351 415Q395 415 420.50 438Q446 461 446 499Q446 538 420.50 561Q395 584 351 584L212 584M372 121Q415 121 440.50 145Q466 169 466 208Q466 246 440.50 270Q415 294 372 294L212 294L212 121L372 121Z"  horiz-adv-x="651" vert-adv-y="1000"  />

      
      <glyph glyph-name="uni0413" unicode="&#x0413;" d="M212 0L72 0L72 705L546 705L546 577L212 577L212 0Z"  horiz-adv-x="553" vert-adv-y="1000"  />

      
      <glyph glyph-name="uni0414" unicode="&#x0414;" d="M2-182L2 128L30 128Q62 128 81.50 145Q101 162 115 211.50Q129 261 137 359L166 705L636 705L636 128L743 128L743-182L603-182L603 0L142 0L142-182L2-182M496 128L496 577L296 577L277 351Q264 193 215 128L496 128Z"  horiz-adv-x="755" vert-adv-y="1000"  />

      
      <glyph glyph-name="uni0415" unicode="&#x0415;" d="M559 0L72 0L72 705L549 705L549 577L212 577L212 416L517 416L517 295L212 295L212 128L559 128L559 0Z"  horiz-adv-x="611" vert-adv-y="1000"  />

      
      <glyph glyph-name="uni0416" unicode="&#x0416;" d="M985 0L813 0L588 297L560 297L560 0L423 0L423 297L396 297L170 0L-3 0L285 375L23 705L185 705L404 423L423 423L423 705L560 705L560 423L579 423L798 705L959 705L697 375L985 0Z"  horiz-adv-x="982" vert-adv-y="1000"  />

      
      <glyph glyph-name="uni0417" unicode="&#x0417;" d="M449 367Q502 348 535 306.50Q568 265 568 204Q568 143 535.50 94.50Q503 46 441.50 18Q380-10 297-10Q225-10 165 15Q105 40 65 85Q25 130 12 189L147 211Q170 164 205 141Q240 118 296 118Q356 118 390.50 143Q425 168 425 211Q425 251 390 275Q355 299 284 299L196 299L196 420L283 420Q340 420 377 443.50Q414 467 414 504Q414 540 381 563.50Q348 587 298 587Q250 587 215 564.50Q180 542 160 502L28 525Q61 618 131 666.50Q201 715 301 715Q374 715 431.50 689.50Q489 664 521.50 619Q554 574 554 517Q554 460 525.50 420.50Q497 381 449 367Z"  horiz-adv-x="610" vert-adv-y="1000"  />

      
      <glyph glyph-name="uni0418" unicode="&#x0418;" d="M268 0L72 0L72 705L210 705L210 175L228 175L512 705L708 705L708 0L570 0L570 530L552 530L268 0Z"  horiz-adv-x="780" vert-adv-y="1000"  />

      
      <glyph glyph-name="uni0419" unicode="&#x0419;" d="M268 0L72 0L72 705L210 705L210 175L228 175L512 705L708 705L708 0L570 0L570 530L552 530L268 0M390 761Q312 761 260.50 798.50Q209 836 201 915L313 915Q317 889 336.50 875Q356 861 390 861Q424 861 443.50 875Q463 889 467 915L579 915Q571 836 519.50 798.50Q468 761 390 761Z"  horiz-adv-x="780" vert-adv-y="1000"  />

      
      <glyph glyph-name="uni041A" unicode="&#x041A;" d="M352 367L662 0L484 0L239 297L212 297L212 0L72 0L72 705L212 705L212 423L237 423L471 705L637 705L352 367Z"  horiz-adv-x="659" vert-adv-y="1000"  />

      
      <glyph glyph-name="uni041B" unicode="&#x041B;" d="M177 705L653 705L653 0L513 0L513 577L309 577L287 218Q280 110 224.50 51Q169-8 73-8Q42-8 20-2L7 135Q35 132 75 132Q110 132 127.50 154Q145 176 148 224L177 705Z"  horiz-adv-x="725" vert-adv-y="1000"  />

      
      <glyph glyph-name="uni041C" unicode="&#x041C;" d="M208 0L72 0L72 705L285 705L460 201L477 201L658 705L866 705L866 0L730 0L730 509L712 509L530 0L403 0L226 509L208 509L208 0Z"  horiz-adv-x="938" vert-adv-y="1000"  />

      
      <glyph glyph-name="uni041D" unicode="&#x041D;" d="M523 419L523 705L663 705L663 0L523 0L523 291L212 291L212 0L72 0L72 705L212 705L212 419L523 419Z"  horiz-adv-x="735" vert-adv-y="1000"  />

      
      <glyph glyph-name="uni041E" unicode="&#x041E;" d="M400-10Q295-10 212.50 36.50Q130 83 83.50 165.50Q37 248 37 353Q37 458 83.50 540.50Q130 623 212.50 669Q295 715 400 715Q506 715 588.50 669Q671 623 717.50 540.50Q764 458 764 353Q764 248 717.50 165.50Q671 83 588.50 36.50Q506-10 400-10M400 118Q464 118 513.50 147.50Q563 177 591 230.50Q619 284 619 353Q619 421 591 474.50Q563 528 513.50 557.50Q464 587 400 587Q336 587 286.50 557.50Q237 528 209.50 474.50Q182 421 182 353Q182 284 209.50 230.50Q237 177 286.50 147.50Q336 118 400 118Z"  horiz-adv-x="801" vert-adv-y="1000"  />

      
      <glyph glyph-name="uni041F" unicode="&#x041F;" d="M212 0L72 0L72 705L658 705L658 0L518 0L518 577L212 577L212 0Z"  horiz-adv-x="730" vert-adv-y="1000"  />

      
      <glyph glyph-name="uni0420" unicode="&#x0420;" d="M72 0L72 705L324 705Q402 705 463 674Q524 643 558.50 588Q593 533 593 462Q593 392 558.50 337Q524 282 462.50 250.50Q401 219 324 219L212 219L212 0L72 0M324 344Q382 344 416 376.50Q450 409 450 462Q450 515 416 547.50Q382 580 324 580L212 580L212 344L324 344Z"  horiz-adv-x="615" vert-adv-y="1000"  />

      
      <glyph glyph-name="uni0421" unicode="&#x0421;" d="M385-10Q285-10 205.50 36.50Q126 83 81.50 165.50Q37 248 37 353Q37 457 82 539.50Q127 622 206.50 668.50Q286 715 387 715Q499 715 583.50 658.50Q668 602 704 503L565 480Q543 530 497.50 558.50Q452 587 392 587Q331 587 283.50 557.50Q236 528 209.50 474.50Q183 421 183 353Q183 284 209 230.50Q235 177 282 147.50Q329 118 390 118Q450 118 498.50 148Q547 178 570 230L709 207Q671 107 584 48.50Q497-10 385-10Z"  horiz-adv-x="731" vert-adv-y="1000"  />

      
      <glyph glyph-name="uni0422" unicode="&#x0422;" d="M381 0L241 0L241 577L7 577L7 705L615 705L615 577L381 577L381 0Z"  horiz-adv-x="622" vert-adv-y="1000"  />

      
      <glyph glyph-name="uni0423" unicode="&#x0423;" d="M488 705L629 705L403 170Q364 76 316 38Q268 0 186 0L82 0L70 128L186 128Q216 128 234 136.50Q252 145 264 164L-3 705L151 705L320 348L337 348L488 705Z"  horiz-adv-x="631" vert-adv-y="1000"  />

      
      <glyph glyph-name="uni0424" unicode="&#x0424;" d="M360 66Q265 66 190.50 103.50Q116 141 74 207.50Q32 274 32 358Q32 442 74 508.50Q116 575 190.50 612Q265 649 360 649L360 732L493 732L493 649Q588 649 663 612Q738 575 780 508.50Q822 442 822 358Q822 274 780 207.50Q738 141 663 103.50Q588 66 493 66L493-17L360-17L360 66M360 526Q278 526 226.50 479.50Q175 433 175 358Q175 309 198.50 270.50Q222 232 264 210.50Q306 189 360 189L360 526M493 189Q547 189 589.50 210.50Q632 232 655.50 270.50Q679 309 679 358Q679 433 627.50 479.50Q576 526 493 526L493 189Z"  horiz-adv-x="854" vert-adv-y="1000"  />

      
      <glyph glyph-name="uni0425" unicode="&#x0425;" d="M169 0L7 0L231 360L25 705L191 705L328 458L346 458L490 705L652 705L445 368L669 0L505 0L351 269L333 269L169 0Z"  horiz-adv-x="676" vert-adv-y="1000"  />

      
      <glyph glyph-name="uni0426" unicode="&#x0426;" d="M750-182L610-182L610 0L72 0L72 705L212 705L212 128L503 128L503 705L643 705L643 128L750 128L750-182Z"  horiz-adv-x="762" vert-adv-y="1000"  />

      
      <glyph glyph-name="uni0427" unicode="&#x0427;" d="M436 250Q379 221 303 221Q178 221 110 288.50Q42 356 42 482L42 705L182 705L182 486Q182 346 319 346Q383 346 436 374L436 705L576 705L576 0L436 0L436 250Z"  horiz-adv-x="648" vert-adv-y="1000"  />

      
      <glyph glyph-name="uni0428" unicode="&#x0428;" d="M936 0L72 0L72 705L212 705L212 128L434 128L434 705L574 705L574 128L796 128L796 705L936 705L936 0Z"  horiz-adv-x="1008" vert-adv-y="1000"  />

      
      <glyph glyph-name="uni0429" unicode="&#x0429;" d="M1043-182L903-182L903 0L72 0L72 705L212 705L212 128L434 128L434 705L574 705L574 128L796 128L796 705L936 705L936 128L1043 128L1043-182Z"  horiz-adv-x="1055" vert-adv-y="1000"  />

      
      <glyph glyph-name="uni042A" unicode="&#x042A;" d="M167 0L167 577L-8 577L-8 705L307 705L307 486L423 486Q496 486 555 454.50Q614 423 648 367.50Q682 312 682 242Q682 172 648 117Q614 62 555 31Q496 0 423 0L167 0M423 128Q472 128 505.50 160Q539 192 539 242Q539 293 505.50 325.50Q472 358 423 358L307 358L307 128L423 128Z"  horiz-adv-x="714" vert-adv-y="1000"  />

      
      <glyph glyph-name="uni042B" unicode="&#x042B;" d="M72 0L72 705L212 705L212 486L318 486Q391 486 450 454.50Q509 423 543 367.50Q577 312 577 242Q577 172 543 117Q509 62 450 31Q391 0 318 0L72 0M798 0L658 0L658 705L798 705L798 0M318 128Q367 128 400.50 160Q434 192 434 242Q434 293 400.50 325.50Q367 358 318 358L212 358L212 128L318 128Z"  horiz-adv-x="870" vert-adv-y="1000"  />

      
      <glyph glyph-name="uni042C" unicode="&#x042C;" d="M72 0L72 705L212 705L212 486L334 486Q407 486 466 454.50Q525 423 559 367.50Q593 312 593 242Q593 172 559 117Q525 62 466 31Q407 0 334 0L72 0M334 128Q383 128 416.50 160Q450 192 450 242Q450 293 416.50 325.50Q383 358 334 358L212 358L212 128L334 128Z"  horiz-adv-x="625" vert-adv-y="1000"  />

      
      <glyph glyph-name="uni042D" unicode="&#x042D;" d="M342 715Q441 715 520 668.50Q599 622 644 539.50Q689 457 689 353Q689 248 644.50 165Q600 82 520.50 36Q441-10 341-10Q226-10 139.50 49.50Q53 109 17 207L157 230Q180 178 227.50 148Q275 118 336 118Q414 118 469 167Q524 216 538 298L233 298L233 419L536 419Q519 496 466 541.50Q413 587 338 587Q281 587 235.50 559.50Q190 532 168 480L29 503Q66 602 149 658.50Q232 715 342 715Z"  horiz-adv-x="726" vert-adv-y="1000"  />

      
      <glyph glyph-name="uni042E" unicode="&#x042E;" d="M660 715Q762 715 842.50 669Q923 623 968 540.50Q1013 458 1013 353Q1013 248 968 165.50Q923 83 842.50 36.50Q762-10 660-10Q568-10 493.50 27.50Q419 65 371.50 133.50Q324 202 311 291L212 291L212 0L72 0L72 705L212 705L212 419L312 419Q325 507 372.50 574Q420 641 494.50 678Q569 715 660 715M660 118Q721 118 768 147.50Q815 177 841 230.50Q867 284 867 353Q867 421 841 474.50Q815 528 768 557.50Q721 587 660 587Q599 587 552 557.50Q505 528 479 474.50Q453 421 453 353Q453 284 479 230.50Q505 177 552 147.50Q599 118 660 118Z"  horiz-adv-x="1050" vert-adv-y="1000"  />

      
      <glyph glyph-name="uni042F" unicode="&#x042F;" d="M582 705L582 0L442 0L442 249L370 249L195 0L32 0L222 264Q147 288 104 344.50Q61 401 61 477Q61 543 94 595Q127 647 186.50 676Q246 705 323 705L582 705M442 374L442 580L323 580Q268 580 236 551.50Q204 523 204 477Q204 431 236 402.50Q268 374 323 374L442 374Z"  horiz-adv-x="654" vert-adv-y="1000"  />

      
      <glyph glyph-name="uni0430" unicode="&#x0430;" d="M284 534Q389 534 449 470.50Q509 407 509 295L509 0L406 0L381 82Q359 44 315 17Q271-10 212-10Q161-10 120 11.50Q79 33 55.50 71Q32 109 32 156Q32 231 91.50 275.50Q151 320 265 320L373 320Q370 364 345 392Q320 420 277 420Q241 420 216.50 402Q192 384 181 361L57 382Q75 453 138 493.50Q201 534 284 534M249 103Q304 103 338 138.50Q372 174 374 225L270 225Q168 225 168 167Q168 138 190 120.50Q212 103 249 103Z"  horiz-adv-x="566" vert-adv-y="1000"  />

      
      <glyph glyph-name="uni0431" unicode="&#x0431;" d="M342 467Q409 467 462.50 437Q516 407 546 353Q576 299 576 230Q576 161 542 106.50Q508 52 447.50 21Q387-10 311-10Q245-10 190.50 14.50Q136 39 99 89Q70 128 53.50 185Q37 242 37 308Q37 458 106.50 548.50Q176 639 334 656Q371 660 389.50 667Q408 674 415.50 686Q423 698 426 721L543 710Q539 645 512 609.50Q485 574 445 559.50Q405 545 344 537Q278 528 243 509.50Q208 491 194 460.50Q180 430 175 376Q205 424 245 445.50Q285 467 342 467M311 110Q368 110 403.50 143Q439 176 439 229Q439 282 403.50 314.50Q368 347 311 347Q254 347 218 314Q182 281 182 229Q182 176 218 143Q254 110 311 110Z"  horiz-adv-x="603" vert-adv-y="1000"  />

      
      <glyph glyph-name="uni0432" unicode="&#x0432;" d="M440 270Q479 259 506 225Q533 191 533 144Q533 103 508 70Q483 37 438.50 18.50Q394 0 337 0L62 0L62 524L324 524Q380 524 423.50 506Q467 488 491 455.50Q515 423 515 382Q515 304 440 270M197 415L197 318L324 318Q349 318 364.50 331Q380 344 380 366Q380 387 364.50 401Q349 415 324 415L197 415M337 109Q365 109 381.50 123Q398 137 398 162Q398 186 381.50 201Q365 216 337 216L197 216L197 109L337 109Z"  horiz-adv-x="571" vert-adv-y="1000"  />

      
      <glyph glyph-name="uni0433" unicode="&#x0433;" d="M197 0L62 0L62 524L434 524L434 401L197 401L197 0Z"  horiz-adv-x="442" vert-adv-y="1000"  />

      
      <glyph glyph-name="uni0434" unicode="&#x0434;" d="M7-157L7 123L23 123Q63 123 86 161Q109 199 115 262L143 524L542 524L542 123L635 123L635-157L500-157L500 0L142 0L142-157L7-157M407 123L407 401L266 401L252 266Q246 207 237 175Q228 143 205 123L407 123Z"  horiz-adv-x="647" vert-adv-y="1000"  />

      
      <glyph glyph-name="uni0435" unicode="&#x0435;" d="M584 270Q584 251 582 227L170 227Q180 173 218 141.50Q256 110 314 110Q354 110 385 125Q416 140 434 166L561 145Q535 71 464 30.50Q393-10 306-10Q227-10 164.50 25Q102 60 67 122Q32 184 32 262Q32 340 67.50 402Q103 464 166 499Q229 534 308 534Q387 534 450 499Q513 464 548.50 403.50Q584 343 584 270M308 421Q261 421 226 394.50Q191 368 177 324L437 324Q423 367 388.50 394Q354 421 308 421Z"  horiz-adv-x="606" vert-adv-y="1000"  />

      
      <glyph glyph-name="uni0436" unicode="&#x0436;" d="M822 0L657 0L500 204L474 204L474 0L346 0L346 204L320 204L162 0L-3 0L215 274L17 524L167 524L320 325L346 325L346 524L474 524L474 325L500 325L652 524L802 524L604 274L822 0Z"  horiz-adv-x="819" vert-adv-y="1000"  />

      
      <glyph glyph-name="uni0437" unicode="&#x0437;" d="M371 269Q418 256 448.50 224Q479 192 479 144Q479 100 451 65Q423 30 371 10Q319-10 250-10Q160-10 99 31.50Q38 73 17 141L140 161Q152 132 181.50 115.50Q211 99 254 99Q296 99 320.50 114.50Q345 130 345 156Q345 180 320.50 193.50Q296 207 248 207L187 207L187 319L248 319Q291 319 314 333Q337 347 337 371Q337 395 316.50 410Q296 425 262 425Q225 425 196 407Q167 389 151 357L30 379Q53 456 115.50 495Q178 534 264 534Q324 534 371 515Q418 496 444.50 462Q471 428 471 385Q471 341 443.50 310.50Q416 280 371 269Z"  horiz-adv-x="522" vert-adv-y="1000"  />

      
      <glyph glyph-name="uni0438" unicode="&#x0438;" d="M244 0L62 0L62 524L190 524L190 162L208 162L386 524L568 524L568 0L440 0L440 362L423 362L244 0Z"  horiz-adv-x="630" vert-adv-y="1000"  />

      
      <glyph glyph-name="uni0439" unicode="&#x0439;" d="M244 0L62 0L62 524L190 524L190 162L208 162L386 524L568 524L568 0L440 0L440 362L423 362L244 0M315 581Q242 581 193.50 619Q145 657 137 737L243 737Q251 675 315 675Q378 675 387 737L492 737Q485 657 436.50 619Q388 581 315 581Z"  horiz-adv-x="630" vert-adv-y="1000"  />

      
      <glyph glyph-name="uni043A" unicode="&#x043A;" d="M564 0L393 0L223 203L197 203L197 0L62 0L62 524L197 524L197 325L220 325L389 524L546 524L329 274L564 0Z"  horiz-adv-x="561" vert-adv-y="1000"  />

      
      <glyph glyph-name="uni043B" unicode="&#x043B;" d="M138 524L539 524L539 0L404 0L404 401L264 401L254 211Q248 107 198.50 51Q149-5 66-5Q44-5 15-2L2 127Q14 126 51 126Q88 126 103 146.50Q118 167 120 209L138 524Z"  horiz-adv-x="601" vert-adv-y="1000"  />

      
      <glyph glyph-name="uni043C" unicode="&#x043C;" d="M190 0L62 0L62 524L266 524L376 198L394 198L508 524L707 524L707 0L579 0L579 362L562 362L433 0L330 0L208 362L190 362L190 0Z"  horiz-adv-x="769" vert-adv-y="1000"  />

      
      <glyph glyph-name="uni043D" unicode="&#x043D;" d="M411 326L411 524L546 524L546 0L411 0L411 203L197 203L197 0L62 0L62 524L197 524L197 326L411 326Z"  horiz-adv-x="608" vert-adv-y="1000"  />

      
      <glyph glyph-name="uni043E" unicode="&#x043E;" d="M316-10Q234-10 169.50 25Q105 60 68.50 121.50Q32 183 32 262Q32 341 68.50 402.50Q105 464 169.50 499Q234 534 316 534Q398 534 463 499Q528 464 564 402.50Q600 341 600 262Q600 183 564 121.50Q528 60 463 25Q398-10 316-10M316 113Q380 113 419.50 154.50Q459 196 459 262Q459 328 419.50 369.50Q380 411 316 411Q252 411 212.50 369.50Q173 328 173 262Q173 196 212.50 154.50Q252 113 316 113Z"  horiz-adv-x="632" vert-adv-y="1000"  />

      
      <glyph glyph-name="uni043F" unicode="&#x043F;" d="M197 0L62 0L62 524L541 524L541 0L406 0L406 401L197 401L197 0Z"  horiz-adv-x="603" vert-adv-y="1000"  />

      
      <glyph glyph-name="uni0440" unicode="&#x0440;" d="M62-205L62 524L167 524L191 442Q221 479 272.50 506.50Q324 534 388 534Q462 534 520 499Q578 464 610.50 402Q643 340 643 262Q643 184 610.50 122Q578 60 520 25Q462-10 388-10Q327-10 278 15Q229 40 197 75L197-205L62-205M351 110Q418 110 460 153Q502 196 502 262Q502 328 460 371Q418 414 351 414Q283 414 240 371Q197 328 197 262Q197 196 240 153Q283 110 351 110Z"  horiz-adv-x="675" vert-adv-y="1000"  />

      
      <glyph glyph-name="uni0441" unicode="&#x0441;" d="M307-10Q228-10 165 25Q102 60 67 122Q32 184 32 262Q32 340 67 402Q102 464 165 499Q228 534 307 534Q396 534 464.50 489Q533 444 560 361L433 340Q418 373 386 392Q354 411 314 411Q252 411 212.50 369Q173 327 173 262Q173 197 212.50 155Q252 113 314 113Q355 113 387 132Q419 151 437 183L564 162Q536 79 465.50 34.50Q395-10 307-10Z"  horiz-adv-x="577" vert-adv-y="1000"  />

      
      <glyph glyph-name="uni0442" unicode="&#x0442;" d="M328 0L193 0L193 401L12 401L12 524L510 524L510 401L328 401L328 0Z"  horiz-adv-x="522" vert-adv-y="1000"  />

      
      <glyph glyph-name="uni0443" unicode="&#x0443;" d="M435 524L571 524L361-49Q330-131 284-168Q238-205 160-205L78-205L67-82L170-82Q197-82 212-70Q227-58 239-26L7 524L151 524L292 176L310 176L435 524Z"  horiz-adv-x="588" vert-adv-y="1000"  />

      
      <glyph glyph-name="uni0444" unicode="&#x0444;" d="M309-2Q229-2 166 32Q103 66 67.50 126Q32 186 32 263Q32 340 67.50 400Q103 460 166 493.50Q229 527 309 527L309 705L437 705L437 527Q518 527 581 493.50Q644 460 679.50 400Q715 340 715 263Q715 186 679.50 126Q644 66 580.50 32Q517-2 437-2L437-205L309-205L309-2M309 412Q247 412 208.50 370.50Q170 329 170 263Q170 196 208.50 154.50Q247 113 309 113L309 412M437 113Q499 113 538 154.50Q577 196 577 263Q577 329 538 370.50Q499 412 437 412L437 113Z"  horiz-adv-x="747" vert-adv-y="1000"  />

      
      <glyph glyph-name="uni0445" unicode="&#x0445;" d="M149 0L0 0L160 268L18 524L167 524L255 359L276 359L367 524L514 524L372 275L534 0L382 0L279 187L258 187L149 0Z"  horiz-adv-x="534" vert-adv-y="1000"  />

      
      <glyph glyph-name="uni0446" unicode="&#x0446;" d="M626-157L491-157L491 0L62 0L62 524L197 524L197 123L399 123L399 524L534 524L534 123L626 123L626-157Z"  horiz-adv-x="638" vert-adv-y="1000"  />

      
      <glyph glyph-name="uni0447" unicode="&#x0447;" d="M337 173Q316 163 286.50 156.50Q257 150 226 150Q125 150 73.50 206Q22 262 22 368L22 524L157 524L157 368Q157 319 180 294Q203 269 247 269Q305 269 337 291L337 524L472 524L472 0L337 0L337 173Z"  horiz-adv-x="534" vert-adv-y="1000"  />

      
      <glyph glyph-name="uni0448" unicode="&#x0448;" d="M821 0L62 0L62 524L197 524L197 123L374 123L374 524L509 524L509 123L686 123L686 524L821 524L821 0Z"  horiz-adv-x="883" vert-adv-y="1000"  />

      
      <glyph glyph-name="uni0449" unicode="&#x0449;" d="M913-157L778-157L778 0L62 0L62 524L197 524L197 123L374 123L374 524L509 524L509 123L686 123L686 524L821 524L821 123L913 123L913-157Z"  horiz-adv-x="925" vert-adv-y="1000"  />

      
      <glyph glyph-name="uni044A" unicode="&#x044A;" d="M147 0L147 408L-3 408L-3 524L282 524L282 380L363 380Q429 380 479.50 355.50Q530 331 558 288Q586 245 586 190Q586 135 558 92Q530 49 479.50 24.50Q429 0 363 0L147 0M363 113Q403 113 427 134Q451 155 451 190Q451 225 427 246Q403 267 363 267L282 267L282 113L363 113Z"  horiz-adv-x="608" vert-adv-y="1000"  />

      
      <glyph glyph-name="uni044B" unicode="&#x044B;" d="M62 0L62 524L197 524L197 380L269 380Q334 380 384.50 355.50Q435 331 463 288Q491 245 491 190Q491 135 463 92Q435 49 384.50 24.50Q334 0 269 0L62 0M686 0L551 0L551 524L686 524L686 0M269 113Q309 113 332.50 134Q356 155 356 190Q356 225 332.50 246Q309 267 269 267L197 267L197 113L269 113Z"  horiz-adv-x="748" vert-adv-y="1000"  />

      
      <glyph glyph-name="uni044C" unicode="&#x044C;" d="M62 0L62 524L197 524L197 380L284 380Q350 380 400 355.50Q450 331 478 288Q506 245 506 190Q506 135 478 92Q450 49 399.50 24.50Q349 0 284 0L62 0M284 113Q324 113 347.50 134Q371 155 371 190Q371 225 347.50 246Q324 267 284 267L197 267L197 113L284 113Z"  horiz-adv-x="528" vert-adv-y="1000"  />

      
      <glyph glyph-name="uni044D" unicode="&#x044D;" d="M274 534Q352 534 413.50 499Q475 464 510 402Q545 340 545 262Q545 184 510 122Q475 60 412.50 25Q350-10 271-10Q185-10 115.50 33Q46 76 17 155L144 176Q162 147 194 130Q226 113 265 113Q313 113 348.50 138.50Q384 164 398 207L201 207L201 319L398 319Q383 361 348.50 386Q314 411 268 411Q230 411 199.50 394Q169 377 153 347L26 368Q55 448 121.50 491Q188 534 274 534Z"  horiz-adv-x="577" vert-adv-y="1000"  />

      
      <glyph glyph-name="uni044E" unicode="&#x044E;" d="M538 534Q619 534 682.50 499Q746 464 781.50 402.50Q817 341 817 262Q817 183 781.50 121.50Q746 60 682.50 25Q619-10 538-10Q432-10 358 48.50Q284 107 265 203L197 203L197 0L62 0L62 524L197 524L197 326L266 326Q286 420 360 477Q434 534 538 534M538 113Q600 113 638.50 154.50Q677 196 677 262Q677 328 638.50 369.50Q600 411 538 411Q477 411 438.50 369.50Q400 328 400 262Q400 196 438.50 154.50Q477 113 538 113Z"  horiz-adv-x="849" vert-adv-y="1000"  />

      
      <glyph glyph-name="uni044F" unicode="&#x044F;" d="M501 524L501 0L369 0L369 168L294 168L183 0L32 0L157 187Q106 208 77 249Q48 290 48 344Q48 396 75 437Q102 478 150 501Q198 524 260 524L501 524M369 270L369 411L260 411Q224 411 203.50 392Q183 373 183 341Q183 309 203.50 289.50Q224 270 260 270L369 270Z"  horiz-adv-x="563" vert-adv-y="1000"  />

      
      <glyph glyph-name="uni0451" unicode="&#x0451;" d="M584 270Q584 251 582 227L170 227Q180 173 218 141.50Q256 110 314 110Q354 110 385 125Q416 140 434 166L561 145Q535 71 464 30.50Q393-10 306-10Q227-10 164.50 25Q102 60 67 122Q32 184 32 262Q32 340 67.50 402Q103 464 166 499Q229 534 308 534Q387 534 450 499Q513 464 548.50 403.50Q584 343 584 270M308 421Q261 421 226 394.50Q191 368 177 324L437 324Q423 367 388.50 394Q354 421 308 421M197 588Q161 588 138 610.50Q115 633 115 668Q115 703 138 726Q161 749 197 749Q232 749 255 726Q278 703 278 668Q278 633 255 610.50Q232 588 197 588M412 588Q376 588 353 610.50Q330 633 330 668Q330 703 353 726Q376 749 412 749Q447 749 470 726Q493 703 493 668Q493 633 470 610.50Q447 588 412 588Z"  horiz-adv-x="606" vert-adv-y="1000"  />

      
      <glyph glyph-name="uni0454" unicode="&#x0454;" d="M567 162Q540 80 468.50 35Q397-10 309-10Q229-10 166 25Q103 60 67.50 122Q32 184 32 262Q32 340 67.50 402Q103 464 166 499Q229 534 309 534Q399 534 468 489Q537 444 563 361L437 340Q422 372 389 391.50Q356 411 314 411Q266 411 230.50 386Q195 361 180 319L388 319L388 207L179 207Q194 164 230 138.50Q266 113 314 113Q356 113 389.50 132Q423 151 441 183L567 162Z"  horiz-adv-x="580" vert-adv-y="1000"  />

      
      <glyph glyph-name="uni0456" unicode="&#x0456;" d="M202 0L67 0L67 524L202 524L202 0M135 588Q99 588 76 610.50Q53 633 53 668Q53 703 76 726Q99 749 135 749Q170 749 193 726Q216 703 216 668Q216 633 193 610.50Q170 588 135 588Z"  horiz-adv-x="269" vert-adv-y="1000"  />

      
      <glyph glyph-name="uni0457" unicode="&#x0457;" d="M202 0L67 0L67 524L202 524L202 0M48 588Q15 588-6.50 610.50Q-28 633-28 668Q-28 703-6 726Q16 749 48 749Q81 749 102.50 726Q124 703 124 668Q124 633 102.50 610.50Q81 588 48 588M222 588Q189 588 167.50 610.50Q146 633 146 668Q146 703 167.50 726Q189 749 222 749Q255 749 276.50 726Q298 703 298 668Q298 633 276.50 610.50Q255 588 222 588Z"  horiz-adv-x="269" vert-adv-y="1000"  />

      
      <glyph glyph-name="uni045E" unicode="&#x045E;" d="M435 524L571 524L361-49Q330-131 284-168Q238-205 160-205L78-205L67-82L170-82Q197-82 212-70Q227-58 239-26L7 524L151 524L292 176L310 176L435 524M296 581Q223 581 174.50 619Q126 657 118 737L224 737Q232 675 296 675Q359 675 368 737L473 737Q466 657 417.50 619Q369 581 296 581Z"  horiz-adv-x="588" vert-adv-y="1000"  />

      
      <glyph glyph-name="uni0490" unicode="&#x0490;" d="M413 705L413 887L546 887L546 577L212 577L212 0L72 0L72 705L413 705Z"  horiz-adv-x="553" vert-adv-y="1000"  />

      
      <glyph glyph-name="uni0491" unicode="&#x0491;" d="M306 524L306 681L434 681L434 401L197 401L197 0L62 0L62 524L306 524Z"  horiz-adv-x="442" vert-adv-y="1000"  />

      
      <glyph glyph-name="uni2013" unicode="&#x2013;" d="M563 225L42 225L42 343L563 343L563 225Z"  horiz-adv-x="605" vert-adv-y="1000"  />

      
      <glyph glyph-name="uni2014" unicode="&#x2014;" d="M814 225L42 225L42 343L814 343L814 225Z"  horiz-adv-x="856" vert-adv-y="1000"  />

      
      <glyph glyph-name="uni2018" unicode="&#x2018;" d="M164 457L42 457L105 705L207 705L164 457Z"  horiz-adv-x="249" vert-adv-y="1000"  />

      
      <glyph glyph-name="uni2019" unicode="&#x2019;" d="M144 457L42 457L85 705L207 705L144 457Z"  horiz-adv-x="249" vert-adv-y="1000"  />

      
      <glyph glyph-name="uni201C" unicode="&#x201C;" d="M164 457L42 457L105 705L207 705L164 457M341 457L219 457L282 705L384 705L341 457Z"  horiz-adv-x="426" vert-adv-y="1000"  />

      
      <glyph glyph-name="uni201D" unicode="&#x201D;" d="M144 457L42 457L85 705L207 705L144 457M321 457L219 457L262 705L384 705L321 457Z"  horiz-adv-x="426" vert-adv-y="1000"  />

      
      <glyph glyph-name="uni2022" unicode="&#x2022;" d="M193 143Q154 143 121.50 161.50Q89 180 70.50 212.50Q52 245 52 284Q52 323 70.50 355.50Q89 388 121.50 406.50Q154 425 193 425Q232 425 264.50 406.50Q297 388 315.50 355.50Q334 323 334 284Q334 245 315.50 212.50Q297 180 264.50 161.50Q232 143 193 143Z"  horiz-adv-x="386" vert-adv-y="1000"  />

      
      <glyph glyph-name="uni2026" unicode="&#x2026;" d="M143-10Q109-10 85.50 13Q62 36 62 69Q62 104 85.50 127Q109 150 143 150Q178 150 201 127Q224 104 224 69Q224 36 200.50 13Q177-10 143-10M397-10Q363-10 339.50 13Q316 36 316 69Q316 104 339.50 127Q363 150 397 150Q432 150 455 127Q478 104 478 69Q478 36 454.50 13Q431-10 397-10M651-10Q617-10 593.50 13Q570 36 570 69Q570 104 593.50 127Q617 150 651 150Q686 150 709 127Q732 104 732 69Q732 36 708.50 13Q685-10 651-10Z"  horiz-adv-x="794" vert-adv-y="1000"  />

      
      <glyph glyph-name="uni2039" unicode="&#x2039;" d="M347 47L187 47L12 266L187 484L347 484L172 266L347 47Z"  horiz-adv-x="364" vert-adv-y="1000"  />

      
      <glyph glyph-name="uni203A" unicode="&#x203A;" d="M184 47L17 47L192 266L17 484L184 484L359 266L184 47Z"  horiz-adv-x="371" vert-adv-y="1000"  />

      
      <glyph glyph-name="uni20AC" unicode="&#x20AC;" d="M717 186Q689 97 612.50 43.50Q536-10 429-10Q309-10 229 54Q149 118 121 230L22 230L22 320L107 320Q106 331 106 353L106 370L22 370L22 460L117 460Q143 578 223.50 646.50Q304 715 426 715Q528 715 605 664Q682 613 715 524L577 500Q554 543 514.50 565Q475 587 425 587Q299 587 264 460L550 460L518 370L252 370L252 353Q252 331 253 320L499 320L467 230L271 230Q291 177 331 147.50Q371 118 429 118Q485 118 526.50 142.50Q568 167 586 209L717 186Z"  horiz-adv-x="739" vert-adv-y="1000"  />

      
      <glyph glyph-name="uni20B4" unicode="&#x20B4;" d="M592 465L592 375L42 375L42 465L366 465Q405 485 405 522Q405 554 381.50 570.50Q358 587 323 587Q260 587 220 525L85 549Q116 626 179 670.50Q242 715 327 715Q388 715 438.50 693.50Q489 672 518.50 631.50Q548 591 548 537Q548 494 529 465L592 465M42 235L42 325L592 325L592 235L255 235Q225 214 225 180Q225 118 318 118Q360 118 389.50 131Q419 144 445 171L572 149Q538 75 468.50 32.50Q399-10 311-10Q249-10 197 10Q145 30 113.50 69.50Q82 109 82 167Q82 209 99 235L42 235Z"  horiz-adv-x="634" vert-adv-y="1000"  />

      
      <glyph glyph-name="uni20B8" unicode="&#x20B8;" d="M595 615L7 615L7 705L595 705L595 615M371 0L231 0L231 432L7 432L7 560L595 560L595 432L371 432L371 0Z"  horiz-adv-x="602" vert-adv-y="1000"  />

      
      <glyph glyph-name="uni20BD" unicode="&#x20BD;" d="M249 267L249 217L469 217L469 127L249 127L249 0L109 0L109 127L22 127L22 217L109 217L109 267L22 267L22 362L109 362L109 705L361 705Q436 705 495 676Q554 647 587 596Q620 545 620 481Q620 418 587.50 369.50Q555 321 496.50 294Q438 267 361 267L249 267M249 582L249 362L361 362Q414 362 445.50 392.50Q477 423 477 472Q477 521 445.50 551.50Q414 582 361 582L249 582Z"  horiz-adv-x="642" vert-adv-y="1000"  />

      
      <glyph glyph-name="uni20BF" unicode="&#x20BF;" d="M589 208Q589 140 548 92.50Q507 45 436 28L436-102L336-102L336 20L262 20L262-102L162-102L162 20L72 20L72 685L162 685L162 807L262 807L262 685L336 685L336 807L436 807L436 671Q497 651 532 606.50Q567 562 567 502Q567 453 542 417Q517 381 473 362Q528 346 558.50 306Q589 266 589 208M212 564L212 411L344 411Q381 411 403.50 432Q426 453 426 488Q426 522 403.50 543Q381 564 344 564L212 564M365 141Q401 141 423.50 163Q446 185 446 221Q446 255 423.50 275.50Q401 296 365 296L212 296L212 141L365 141Z"  horiz-adv-x="631" vert-adv-y="1000"  />

      
      <glyph glyph-name="uni2116" unicode="&#x2116;" d="M964 367Q913 367 872.50 389.50Q832 412 809 452Q786 492 786 541Q786 590 809 629.50Q832 669 872.50 691.50Q913 714 964 714Q1015 714 1056 691.50Q1097 669 1120 629.50Q1143 590 1143 541Q1143 492 1120 452Q1097 412 1056 389.50Q1015 367 964 367M208 0L72 0L72 705L274 705L557 175L574 175L574 705L710 705L710 0L508 0L225 530L208 530L208 0M964 464Q998 464 1019.50 485.50Q1041 507 1041 541Q1041 575 1019.50 596Q998 617 964 617Q930 617 909 596Q888 575 888 541Q888 507 909 485.50Q930 464 964 464M1131 224L796 224L796 316L1131 316L1131 224Z"  horiz-adv-x="1194" vert-adv-y="1000"  />

      
      <glyph glyph-name="uni2122" unicode="&#x2122;" d="M228 382L131 382L131 620L22 620L22 705L337 705L337 620L228 620L228 382M462 382L370 382L370 705L495 705L559 536L569 536L634 705L759 705L759 382L667 382L667 550L657 550L589 382L537 382L471 550L462 550L462 382Z"  horiz-adv-x="816" vert-adv-y="1000"  />

      
      <glyph glyph-name="uni2190" unicode="&#x2190;" d="M342 216L273 147L100 319L100 393L273 565L342 496L270 425L271 414L871 414L871 298L271 298L270 287L342 216Z"  horiz-adv-x="971" vert-adv-y="1000"  />

      
      <glyph glyph-name="uni2191" unicode="&#x2191;" d="M402 0L286 0L286 567L275 568L204 496L135 565L307 738L381 738L553 565L484 496L413 568L402 567L402 0Z"  horiz-adv-x="688" vert-adv-y="1000"  />

      
      <glyph glyph-name="uni2192" unicode="&#x2192;" d="M871 319L698 147L629 216L701 287L700 298L100 298L100 414L700 414L701 425L629 496L698 565L871 393L871 319Z"  horiz-adv-x="971" vert-adv-y="1000"  />

      
      <glyph glyph-name="uni2193" unicode="&#x2193;" d="M381-33L307-33L135 140L204 209L275 137L286 138L286 705L402 705L402 138L413 137L484 209L553 140L381-33Z"  horiz-adv-x="688" vert-adv-y="1000"  />

      
      <glyph glyph-name="uni2194" unicode="&#x2194;" d="M340 217L273 150L100 322L100 390L273 562L340 495L265 422L265 411L785 411L785 422L710 495L777 562L950 390L950 322L777 150L710 217L785 290L785 301L265 301L265 290L340 217Z"  horiz-adv-x="1050" vert-adv-y="1000"  />

      
      <glyph glyph-name="uni2195" unicode="&#x2195;" d="M378-42L310-42L138 131L205 198L278 123L289 123L289 573L278 573L205 498L138 565L310 738L378 738L555 560L488 493L410 573L399 573L399 123L410 123L488 203L555 136L378-42Z"  horiz-adv-x="693" vert-adv-y="1000"  />

      
      <glyph glyph-name="uni2196" unicode="&#x2196;" d="M758 132L676 50L252 475L243 468L243 365L146 365L146 610L198 662L443 662L443 565L341 565L334 557L758 132Z"  horiz-adv-x="884" vert-adv-y="1000"  />

      
      <glyph glyph-name="uni2197" unicode="&#x2197;" d="M632 475L208 50L126 132L550 557L543 565L441 565L441 662L686 662L738 610L738 365L641 365L641 468L632 475Z"  horiz-adv-x="884" vert-adv-y="1000"  />

      
      <glyph glyph-name="uni2198" unicode="&#x2198;" d="M686 50L441 50L441 147L543 147L550 155L126 580L208 662L632 237L641 244L641 347L738 347L738 102L686 50Z"  horiz-adv-x="884" vert-adv-y="1000"  />

      
      <glyph glyph-name="uni2199" unicode="&#x2199;" d="M443 50L198 50L146 102L146 347L243 347L243 244L252 237L676 662L758 580L334 155L341 147L443 147L443 50Z"  horiz-adv-x="884" vert-adv-y="1000"  />

      
      <glyph glyph-name="uni2212" unicode="&#x2212;" d="M556 280L62 280L62 398L556 398L556 280Z"  horiz-adv-x="618" vert-adv-y="1000"  />

      
      <glyph glyph-name="uni2248" unicode="&#x2248;" d="M402 354Q362 354 337 364.50Q312 375 282 395Q263 408 252 413.50Q241 419 227 419Q202 419 186.50 404Q171 389 171 359L49 359Q49 445 93.50 491.50Q138 538 216 538Q256 538 282 527Q308 516 336 497Q353 485 365 479Q377 473 390 473Q416 473 431.50 488Q447 503 447 533L569 533Q569 447 524 400.50Q479 354 402 354M402 140Q362 140 337 150.50Q312 161 282 181Q263 194 252 199.50Q241 205 227 205Q202 205 186.50 190Q171 175 171 145L49 145Q49 231 93.50 277.50Q138 324 216 324Q256 324 282 313Q308 302 336 283Q353 271 365 265Q377 259 390 259Q416 259 431.50 274Q447 289 447 319L569 319Q569 233 524 186.50Q479 140 402 140Z"  horiz-adv-x="618" vert-adv-y="1000"  />

      
      <glyph glyph-name="uni2260" unicode="&#x2260;" d="M556 501L556 383L387 383L349 295L556 295L556 177L298 177L263 95L145 95L180 177L62 177L62 295L231 295L269 383L62 383L62 501L320 501L355 583L473 583L438 501L556 501Z"  horiz-adv-x="618" vert-adv-y="1000"  />

      
      <glyph glyph-name="uni2264" unicode="&#x2264;" d="M546 318L546 194L72 344L72 484L546 634L546 508L210 418L210 410L546 318M546 165L546 48L72 48L72 165L546 165Z"  horiz-adv-x="618" vert-adv-y="1000"  />

      
      <glyph glyph-name="uni2265" unicode="&#x2265;" d="M546 344L72 194L72 318L408 410L408 418L72 508L72 634L546 484L546 344M546 48L72 48L72 165L546 165L546 48Z"  horiz-adv-x="618" vert-adv-y="1000"  />

      
      <glyph glyph-name="uniF8FF" unicode="&#xF8FF;" d="M298 0Q197 0 145.50 20Q94 40 74 91.50Q54 143 54 244L54 461Q54 562 74 613.50Q94 665 145.50 685Q197 705 298 705L515 705Q616 705 667.50 685Q719 665 739 613.50Q759 562 759 461L759 244Q759 143 739 91.50Q719 40 667.50 20Q616 0 515 0L298 0M623 202Q642 202 642 216Q642 221 641 224Q633 246 598 284L563 320Q557 326 557 332Q557 338 573 360Q602 400 617 429Q632 458 632 468Q632 481 615 481L564 481Q548 481 542 467Q531 443 514 413Q497 383 479 362Q465 346 455 346Q447 346 447 361L447 463Q447 482 432 482L351 482Q346 482 342.50 478.50Q339 475 339 470Q339 465 345 457.50Q351 450 355 442.50Q359 435 359 420L359 344Q359 332 357 328.50Q355 325 350 325Q336 325 309.50 366.50Q283 408 264 462Q260 473 255.50 477.50Q251 482 242 482L190 482Q172 482 172 467Q172 451 192 403Q212 355 253 297Q285 252 327 227.50Q369 203 410 203Q433 203 440 207.50Q447 212 447 222L447 269Q447 280 449.50 283Q452 286 460 286Q474 286 496 267Q518 248 537 227Q549 212 556 207Q563 202 572 202L623 202Z"  horiz-adv-x="813" vert-adv-y="1000"  />

      

  </font>
</defs>
</svg>
